<svg width="251" height="200" viewBox="0 0 251 200" fill="none" xmlns="http://www.w3.org/2000/svg">
<rect x="0.5" width="250" height="200" fill="white"/>
<path fill-rule="evenodd" clip-rule="evenodd" d="M63.5 134H154.5C155.015 134 155.517 133.944 156 133.839C156.483 133.944 156.985 134 157.5 134H209.5C213.366 134 216.5 130.866 216.5 127C216.5 123.134 213.366 120 209.5 120H203.5C199.634 120 196.5 116.866 196.5 113C196.5 109.134 199.634 106 203.5 106H222.5C226.366 106 229.5 102.866 229.5 99C229.5 95.134 226.366 92 222.5 92H200.5C204.366 92 207.5 88.866 207.5 85C207.5 81.134 204.366 78 200.5 78H136.5C140.366 78 143.5 74.866 143.5 71C143.5 67.134 140.366 64 136.5 64H79.5C75.634 64 72.5 67.134 72.5 71C72.5 74.866 75.634 78 79.5 78H39.5C35.634 78 32.5 81.134 32.5 85C32.5 88.866 35.634 92 39.5 92H64.5C68.366 92 71.5 95.134 71.5 99C71.5 102.866 68.366 106 64.5 106H24.5C20.634 106 17.5 109.134 17.5 113C17.5 116.866 20.634 120 24.5 120H63.5C59.634 120 56.5 123.134 56.5 127C56.5 130.866 59.634 134 63.5 134ZM226.5 134C230.366 134 233.5 130.866 233.5 127C233.5 123.134 230.366 120 226.5 120C222.634 120 219.5 123.134 219.5 127C219.5 130.866 222.634 134 226.5 134Z" fill="#F3FFF3"/>
<path fill-rule="evenodd" clip-rule="evenodd" d="M169.077 126.075C166.5 128 163.988 129.81 161.144 131.374L161.309 145.457C161.322 146.562 160.437 147.467 159.332 147.48C158.883 147.486 158.445 147.339 158.089 147.066L145.426 137.323C140.68 138.416 135.673 139 130.5 139C100.124 139 75.5 118.853 75.5 94C75.5 69.1472 100.124 49 130.5 49C160.876 49 185.5 69.1472 185.5 94C185.5 100.879 183.614 107.397 180.241 113.227C179.619 114.303 178.946 115.355 178.226 116.381C178.226 116.381 176.817 118.5 174 121.5C171.183 124.5 169.077 126.075 169.077 126.075Z" fill="white"/>
<path fill-rule="evenodd" clip-rule="evenodd" d="M169.077 126.075C166.5 128 163.988 129.81 161.144 131.374L161.309 145.457C161.322 146.562 160.437 147.467 159.332 147.48C158.883 147.486 158.445 147.339 158.089 147.066L145.426 137.323C140.68 138.416 135.673 139 130.5 139C100.124 139 75.5 118.853 75.5 94C75.5 69.1472 100.124 49 130.5 49C160.876 49 185.5 69.1472 185.5 94C185.5 100.879 183.614 107.397 180.241 113.227C179.619 114.303 178.946 115.355 178.226 116.381C178.226 116.381 176.817 118.5 174 121.5C171.183 124.5 169.077 126.075 169.077 126.075Z" stroke="#10BB76" stroke-width="2.5" stroke-linecap="round"/>
<path fill-rule="evenodd" clip-rule="evenodd" d="M163.353 81.5895C168.657 81.5895 173.766 80.957 178.551 79.7868C180.461 84.1364 181.5 88.8232 181.5 93.7074C181.5 100.043 179.751 106.047 176.623 111.417C176.047 112.408 175.423 113.376 174.755 114.322C173.7 115.815 172.948 116.869 172.285 117.714C170.719 119.713 169.655 120.544 166.271 123.25C164.015 125.055 161.552 126.691 158.915 128.131L159.068 141.103C159.08 142.12 159.389 143.988 158.365 144C157.949 144.005 156.413 142.837 156.083 142.584L145.873 133.467C141.472 134.473 135.297 135.156 130.5 135.156C102.333 135.156 79.5 116.599 79.5 93.7074C79.5 74.961 94.8133 59.1215 115.828 54C121.332 69.8745 140.523 81.5895 163.353 81.5895ZM110.791 88.1483C107.486 88.1483 104.807 90.8448 104.807 94.1711C104.807 97.4974 107.486 100.194 110.791 100.194C114.096 100.194 116.775 97.4974 116.775 94.1711C116.775 90.8448 114.096 88.1483 110.791 88.1483ZM129.741 88.1483C126.436 88.1483 123.757 90.8448 123.757 94.1711C123.757 97.4974 126.436 100.194 129.741 100.194C133.046 100.194 135.725 97.4974 135.725 94.1711C135.725 90.8448 133.046 88.1483 129.741 88.1483ZM148.691 88.1483C145.386 88.1483 142.707 90.8448 142.707 94.1711C142.707 97.4974 145.386 100.194 148.691 100.194C151.996 100.194 154.676 97.4974 154.676 94.1711C154.676 90.8448 151.996 88.1483 148.691 88.1483Z" fill="#EBFEE8"/>
<path fill-rule="evenodd" clip-rule="evenodd" d="M110.5 88C113.814 88 116.5 90.6863 116.5 94C116.5 97.3137 113.814 100 110.5 100C107.186 100 104.5 97.3137 104.5 94C104.5 90.6863 107.186 88 110.5 88ZM129.5 88C132.814 88 135.5 90.6863 135.5 94C135.5 97.3137 132.814 100 129.5 100C126.186 100 123.5 97.3137 123.5 94C123.5 90.6863 126.186 88 129.5 88ZM148.5 88C151.814 88 154.5 90.6863 154.5 94C154.5 97.3137 151.814 100 148.5 100C145.186 100 142.5 97.3137 142.5 94C142.5 90.6863 145.186 88 148.5 88Z" fill="white" stroke="#10BB76" stroke-width="2.5"/>
<path d="M90.1621 79.3115C89.2541 80.8435 88.4672 82.4333 87.8118 84.0725" stroke="#EBFEE8" stroke-width="2.5" stroke-linecap="round"/>
<path d="M108.522 63.0732C101.969 66.2006 96.437 70.6244 92.4392 75.9203" stroke="#EBFEE8" stroke-width="2.5" stroke-linecap="round"/>
</svg>
