<svg width="40" height="36" viewBox="0 0 123 36" fill="none" xmlns="http://www.w3.org/2000/svg">
<path d="M15.1788 28.7682C12.9801 28.7682 10.9536 28.4238 9.09934 27.7351C7.27152 27.0199 5.66887 26.0132 4.29139 24.7152C2.9404 23.4172 1.88079 21.894 1.11258 20.1457C0.370861 18.3974 0 16.4768 0 14.3841C0 12.2914 0.370861 10.3709 1.11258 8.62252C1.88079 6.87417 2.95364 5.35099 4.33113 4.05298C5.70861 2.75497 7.3245 1.76159 9.17881 1.07285C11.0331 0.357615 13.0728 0 15.298 0C17.7616 0 19.9735 0.410595 21.9338 1.23179C23.9205 2.05298 25.5894 3.24503 26.9404 4.80795L22.8079 8.62252C21.8013 7.56291 20.702 6.78146 19.5099 6.27815C18.3179 5.74834 17.0199 5.48344 15.6159 5.48344C14.2649 5.48344 13.0331 5.69536 11.9205 6.1192C10.8079 6.54305 9.84106 7.15232 9.01987 7.94702C8.22517 8.74172 7.60265 9.68212 7.15232 10.7682C6.72848 11.8543 6.51656 13.0596 6.51656 14.3841C6.51656 15.6821 6.72848 16.8742 7.15232 17.9603C7.60265 19.0464 8.22517 20 9.01987 20.8212C9.84106 21.6159 10.7947 22.2252 11.8808 22.649C12.9934 23.0728 14.2119 23.2848 15.5364 23.2848C16.8079 23.2848 18.0397 23.0861 19.2318 22.6887C20.4503 22.2649 21.6291 21.5629 22.7682 20.5828L26.4238 25.2318C24.9139 26.3709 23.1523 27.245 21.1391 27.8543C19.1523 28.4636 17.1656 28.7682 15.1788 28.7682ZM20.543 24.3974V13.947H26.4238V25.2318L20.543 24.3974Z" fill="white"/>
</svg>
