<svg width="104" height="48" viewBox="0 0 104 48" fill="none" xmlns="http://www.w3.org/2000/svg">
<path d="M25.2966 20.844H32.5382V34.7401C30.6789 36.1427 28.526 37.2192 26.0795 37.9694C23.633 38.7197 21.1702 39.0948 18.6911 39.0948C15.1356 39.0948 11.9388 38.3445 9.10092 36.844C6.263 35.3109 4.02854 33.2069 2.39755 30.5321C0.799185 27.8247 0 24.7747 0 21.3823C0 17.9898 0.799185 14.9562 2.39755 12.2813C4.02854 9.57391 6.27931 7.46993 9.14985 5.96942C12.0204 4.43629 15.2497 3.66973 18.8379 3.66973C21.8389 3.66973 24.5627 4.17533 27.0092 5.18654C29.4557 6.19776 31.5107 7.66565 33.1743 9.59022L28.0856 14.2875C25.6391 11.7105 22.6871 10.422 19.2294 10.422C17.0438 10.422 15.103 10.8787 13.4067 11.7921C11.7105 12.7054 10.3894 13.9939 9.44342 15.6575C8.49745 17.3211 8.02446 19.2294 8.02446 21.3823C8.02446 23.5025 8.49745 25.3945 9.44342 27.0581C10.3894 28.7217 11.6942 30.0265 13.3578 30.9725C15.054 31.8858 16.9786 32.3425 19.1315 32.3425C21.4149 32.3425 23.4699 31.8532 25.2966 30.8746V20.844Z" fill="white"/>
<path d="M46.6537 15.6575C47.567 14.3853 48.7903 13.423 50.3234 12.7706C51.8891 12.1182 53.6832 11.7921 55.7057 11.7921V18.8379C54.8575 18.7727 54.2867 18.7401 53.9931 18.7401C51.8076 18.7401 50.0951 19.3598 48.8555 20.5994C47.616 21.8063 46.9962 23.633 46.9962 26.0795V38.5076H39.3631V12.1835H46.6537V15.6575Z" fill="white"/>
<path d="M60.2443 12.1835H67.8773V38.5076H60.2443V12.1835ZM64.0608 8.51376C62.6581 8.51376 61.5164 8.10602 60.6357 7.29052C59.755 6.47503 59.3146 5.46381 59.3146 4.25688C59.3146 3.04995 59.755 2.03874 60.6357 1.22324C61.5164 0.407748 62.6581 0 64.0608 0C65.4634 0 66.6051 0.391438 67.4859 1.17431C68.3666 1.95719 68.807 2.93578 68.807 4.11009C68.807 5.38226 68.3666 6.44241 67.4859 7.29052C66.6051 8.10602 65.4634 8.51376 64.0608 8.51376Z" fill="white"/>
<path d="M90.521 11.7921C92.9675 11.7921 95.1856 12.3629 97.1755 13.5046C99.1979 14.6137 100.78 16.1957 101.922 18.2508C103.063 20.2732 103.634 22.6381 103.634 25.3456C103.634 28.053 103.063 30.4343 101.922 32.4893C100.78 34.5117 99.1979 36.0938 97.1755 37.2355C95.1856 38.3445 92.9675 38.8991 90.521 38.8991C87.1612 38.8991 84.519 37.8389 82.5944 35.7187V48H74.9614V12.1835H82.2519V15.2171C84.1439 12.9337 86.9002 11.7921 90.521 11.7921ZM89.1999 32.6361C91.1571 32.6361 92.7555 31.9837 93.995 30.6789C95.2672 29.3415 95.9033 27.5637 95.9033 25.3456C95.9033 23.1274 95.2672 21.366 93.995 20.0612C92.7555 18.7238 91.1571 18.055 89.1999 18.055C87.2427 18.055 85.6281 18.7238 84.3559 20.0612C83.1163 21.366 82.4966 23.1274 82.4966 25.3456C82.4966 27.5637 83.1163 29.3415 84.3559 30.6789C85.6281 31.9837 87.2427 32.6361 89.1999 32.6361Z" fill="white"/>
</svg>
