<svg width="50" height="50" viewBox="0 0 50 50" fill="none" xmlns="http://www.w3.org/2000/svg">
<rect width="50" height="50" rx="10" fill="#009260" fill-opacity="0.2"/>
<path d="M33.2083 20.82L25.5083 25.28C25.1983 25.46 24.8083 25.46 24.4883 25.28L16.7883 20.82C16.2383 20.5 16.0983 19.75 16.5183 19.28C16.8083 18.95 17.1383 18.68 17.4883 18.49L22.9083 15.49C24.0683 14.84 25.9483 14.84 27.1083 15.49L32.5283 18.49C32.8783 18.68 33.2083 18.96 33.4983 19.28C33.8983 19.75 33.7583 20.5 33.2083 20.82Z" fill="#009260"/>
<path d="M24.4305 27.14V33.96C24.4305 34.72 23.6605 35.22 22.9805 34.89C20.9205 33.88 17.4505 31.99 17.4505 31.99C16.2305 31.3 15.2305 29.56 15.2305 28.13V22.97C15.2305 22.18 16.0605 21.68 16.7405 22.07L23.9305 26.24C24.2305 26.43 24.4305 26.77 24.4305 27.14Z" fill="#009260"/>
<path d="M25.5703 27.14V33.96C25.5703 34.72 26.3403 35.22 27.0203 34.89C29.0803 33.88 32.5503 31.99 32.5503 31.99C33.7703 31.3 34.7703 29.56 34.7703 28.13V22.97C34.7703 22.18 33.9403 21.68 33.2603 22.07L26.0703 26.24C25.7703 26.43 25.5703 26.77 25.5703 27.14Z" fill="#009260"/>
</svg>
