<svg width="24" height="24" viewBox="0 0 24 24" fill="none" xmlns="http://www.w3.org/2000/svg">
<g id="Iconsax/Outline/arrowright2">
<path id="Vector" d="M8.90999 20.6695C8.71999 20.6695 8.52999 20.5995 8.37999 20.4495C8.24051 20.3084 8.16229 20.118 8.16229 19.9195C8.16229 19.7211 8.24051 19.5307 8.37999 19.3895L14.9 12.8695C15.38 12.3895 15.38 11.6095 14.9 11.1295L8.37999 4.60953C8.24051 4.46839 8.16229 4.27796 8.16229 4.07953C8.16229 3.8811 8.24051 3.69067 8.37999 3.54953C8.66999 3.25953 9.14999 3.25953 9.43999 3.54953L15.96 10.0695C16.47 10.5795 16.76 11.2695 16.76 11.9995C16.76 12.7295 16.48 13.4195 15.96 13.9295L9.43999 20.4495C9.28999 20.5895 9.09999 20.6695 8.90999 20.6695Z" fill="#001726"/>
</g>
</svg>
