<svg width="25" height="24" viewBox="0 0 25 24" fill="none" xmlns="http://www.w3.org/2000/svg">
<g id="Iconsax/Outline/calendar1">
<path id="Vector" d="M8.5 5.75C8.09 5.75 7.75 5.41 7.75 5V2C7.75 1.59 8.09 1.25 8.5 1.25C8.91 1.25 9.25 1.59 9.25 2V5C9.25 5.41 8.91 5.75 8.5 5.75ZM16.5 5.75C16.09 5.75 15.75 5.41 15.75 5V2C15.75 1.59 16.09 1.25 16.5 1.25C16.91 1.25 17.25 1.59 17.25 2V5C17.25 5.41 16.91 5.75 16.5 5.75ZM9 14.498C8.87 14.498 8.74 14.468 8.62 14.418C8.49 14.368 8.39 14.298 8.29 14.208C8.11 14.018 8 13.768 8 13.498C8 13.368 8.03 13.238 8.08 13.118C8.13 12.998 8.2 12.888 8.29 12.788C8.39 12.698 8.49 12.628 8.62 12.578C8.98 12.428 9.43 12.508 9.71 12.788C9.89 12.978 10 13.238 10 13.498C10 13.558 9.99 13.628 9.98 13.698C9.97 13.758 9.95 13.818 9.92 13.878C9.9 13.938 9.87 13.998 9.83 14.058C9.8 14.108 9.75 14.158 9.71 14.208C9.52 14.388 9.26 14.498 9 14.498ZM12.5 14.499C12.37 14.499 12.24 14.469 12.12 14.419C11.99 14.369 11.89 14.299 11.79 14.209C11.61 14.019 11.5 13.769 11.5 13.499C11.5 13.369 11.53 13.239 11.58 13.119C11.63 12.999 11.7 12.889 11.79 12.789C11.89 12.699 11.99 12.629 12.12 12.579C12.48 12.419 12.93 12.509 13.21 12.789C13.39 12.979 13.5 13.239 13.5 13.499C13.5 13.559 13.49 13.629 13.48 13.699C13.47 13.759 13.45 13.819 13.42 13.879C13.4 13.939 13.37 13.999 13.33 14.059C13.3 14.109 13.25 14.159 13.21 14.209C13.02 14.389 12.76 14.499 12.5 14.499ZM16 14.499C15.87 14.499 15.74 14.469 15.62 14.419C15.49 14.369 15.39 14.299 15.29 14.209L15.17 14.059C15.1321 14.0033 15.1019 13.9427 15.08 13.879C15.0511 13.8223 15.0309 13.7617 15.02 13.699C15.01 13.629 15 13.559 15 13.499C15 13.239 15.11 12.979 15.29 12.789C15.39 12.699 15.49 12.629 15.62 12.579C15.99 12.419 16.43 12.509 16.71 12.789C16.89 12.979 17 13.239 17 13.499C17 13.559 16.99 13.629 16.98 13.699C16.97 13.759 16.95 13.819 16.92 13.879C16.9 13.939 16.87 13.999 16.83 14.059C16.8 14.109 16.75 14.159 16.71 14.209C16.52 14.389 16.26 14.499 16 14.499ZM9 18C8.87 18 8.74 17.97 8.62 17.92C8.5 17.87 8.39 17.8 8.29 17.71C8.11 17.52 8 17.26 8 17C8 16.87 8.03 16.74 8.08 16.62C8.13 16.49 8.2 16.38 8.29 16.29C8.66 15.92 9.34 15.92 9.71 16.29C9.89 16.48 10 16.74 10 17C10 17.26 9.89 17.52 9.71 17.71C9.52 17.89 9.26 18 9 18ZM12.5 18C12.24 18 11.98 17.89 11.79 17.71C11.61 17.52 11.5 17.26 11.5 17C11.5 16.87 11.53 16.74 11.58 16.62C11.63 16.49 11.7 16.38 11.79 16.29C12.16 15.92 12.84 15.92 13.21 16.29C13.3 16.38 13.37 16.49 13.42 16.62C13.47 16.74 13.5 16.87 13.5 17C13.5 17.26 13.39 17.52 13.21 17.71C13.02 17.89 12.76 18 12.5 18ZM16 18C15.74 18 15.48 17.89 15.29 17.71C15.1975 17.6161 15.1259 17.5036 15.08 17.38C15.0286 17.2598 15.0015 17.1307 15 17C15 16.87 15.03 16.74 15.08 16.62C15.13 16.49 15.2 16.38 15.29 16.29C15.52 16.06 15.87 15.95 16.19 16.02C16.26 16.03 16.32 16.05 16.38 16.08C16.44 16.1 16.5 16.13 16.56 16.17C16.61 16.2 16.66 16.25 16.71 16.29C16.89 16.48 17 16.74 17 17C17 17.26 16.89 17.52 16.71 17.71C16.52 17.89 16.26 18 16 18ZM21 9.84H4C3.59 9.84 3.25 9.5 3.25 9.09C3.25 8.68 3.59 8.34 4 8.34H21C21.41 8.34 21.75 8.68 21.75 9.09C21.75 9.5 21.41 9.84 21 9.84Z" fill="#999999"/>
<path id="Vector_2" d="M16.5 22.75H8.5C4.85 22.75 2.75 20.65 2.75 17V8.5C2.75 4.85 4.85 2.75 8.5 2.75H16.5C20.15 2.75 22.25 4.85 22.25 8.5V17C22.25 20.65 20.15 22.75 16.5 22.75ZM8.5 4.25C5.64 4.25 4.25 5.64 4.25 8.5V17C4.25 19.86 5.64 21.25 8.5 21.25H16.5C19.36 21.25 20.75 19.86 20.75 17V8.5C20.75 5.64 19.36 4.25 16.5 4.25H8.5Z" fill="#999999"/>
</g>
</svg>
