<svg width="25" height="24" viewBox="0 0 25 24" fill="none" xmlns="http://www.w3.org/2000/svg">
<g id="Iconsax/Bold/volumehigh">
<g id="Vector">
<path d="M18.5 16.75C18.3607 16.75 18.2242 16.7112 18.1057 16.638C17.9872 16.5648 17.8915 16.46 17.8292 16.3354C17.7669 16.2108 17.7405 16.0714 17.753 15.9326C17.7655 15.7939 17.8164 15.6614 17.9 15.55C18.6645 14.5243 19.0775 13.2793 19.0775 12C19.0775 10.7207 18.6645 9.47566 17.9 8.45C17.7807 8.29087 17.7294 8.09085 17.7575 7.89394C17.7857 7.69702 17.8909 7.51935 18.05 7.4C18.2091 7.28066 18.4092 7.22941 18.6061 7.25754C18.803 7.28567 18.9807 7.39087 19.1 7.55C21.06 10.17 21.06 13.83 19.1 16.45C18.95 16.65 18.73 16.75 18.5 16.75Z" fill="#001726"/>
<path d="M18.5 16.75C18.3607 16.75 18.2242 16.7112 18.1057 16.638C17.9872 16.5648 17.8915 16.46 17.8292 16.3354C17.7669 16.2108 17.7405 16.0714 17.753 15.9326C17.7655 15.7939 17.8164 15.6614 17.9 15.55C18.6645 14.5243 19.0775 13.2793 19.0775 12C19.0775 10.7207 18.6645 9.47566 17.9 8.45C17.7807 8.29087 17.7294 8.09085 17.7575 7.89394C17.7857 7.69702 17.8909 7.51935 18.05 7.4C18.2091 7.28066 18.4092 7.22941 18.6061 7.25754C18.803 7.28567 18.9807 7.39087 19.1 7.55C21.06 10.17 21.06 13.83 19.1 16.45C18.95 16.65 18.73 16.75 18.5 16.75Z" fill="black" fill-opacity="0.2"/>
<path d="M18.5 16.75C18.3607 16.75 18.2242 16.7112 18.1057 16.638C17.9872 16.5648 17.8915 16.46 17.8292 16.3354C17.7669 16.2108 17.7405 16.0714 17.753 15.9326C17.7655 15.7939 17.8164 15.6614 17.9 15.55C18.6645 14.5243 19.0775 13.2793 19.0775 12C19.0775 10.7207 18.6645 9.47566 17.9 8.45C17.7807 8.29087 17.7294 8.09085 17.7575 7.89394C17.7857 7.69702 17.8909 7.51935 18.05 7.4C18.2091 7.28066 18.4092 7.22941 18.6061 7.25754C18.803 7.28567 18.9807 7.39087 19.1 7.55C21.06 10.17 21.06 13.83 19.1 16.45C18.95 16.65 18.73 16.75 18.5 16.75Z" fill="black" fill-opacity="0.2"/>
</g>
<g id="Vector_2">
<path d="M20.328 19.2497C20.1887 19.2497 20.0522 19.2109 19.9337 19.1377C19.8152 19.0644 19.7195 18.9597 19.6572 18.8351C19.5949 18.7105 19.5685 18.571 19.581 18.4323C19.5935 18.2936 19.6444 18.1611 19.728 18.0497C22.398 14.4897 22.398 9.50968 19.728 5.94968C19.6087 5.79055 19.5574 5.59052 19.5855 5.39361C19.6137 5.1967 19.7189 5.01902 19.878 4.89968C20.0371 4.78033 20.2372 4.72908 20.4341 4.75721C20.631 4.78535 20.8087 4.89055 20.928 5.04968C23.998 9.13968 23.998 14.8597 20.928 18.9497C20.788 19.1497 20.558 19.2497 20.328 19.2497ZM14.52 3.78168C13.4 3.16168 11.97 3.32168 10.51 4.23168L7.59 6.06168C7.39 6.18168 7.16 6.25168 6.93 6.25168H5.5C3.08 6.25168 1.75 7.58168 1.75 10.0017V14.0017C1.75 16.4217 3.08 17.7517 5.5 17.7517H6.93C7.16 17.7517 7.39 17.8217 7.59 17.9417L10.51 19.7717C11.39 20.3217 12.25 20.5917 13.05 20.5917C13.5636 20.5962 14.0698 20.4688 14.52 20.2217C15.63 19.6017 16.25 18.3117 16.25 16.5917V7.41168C16.25 5.69168 15.63 4.40168 14.52 3.78168Z" fill="#001726"/>
<path d="M20.328 19.2497C20.1887 19.2497 20.0522 19.2109 19.9337 19.1377C19.8152 19.0644 19.7195 18.9597 19.6572 18.8351C19.5949 18.7105 19.5685 18.571 19.581 18.4323C19.5935 18.2936 19.6444 18.1611 19.728 18.0497C22.398 14.4897 22.398 9.50968 19.728 5.94968C19.6087 5.79055 19.5574 5.59052 19.5855 5.39361C19.6137 5.1967 19.7189 5.01902 19.878 4.89968C20.0371 4.78033 20.2372 4.72908 20.4341 4.75721C20.631 4.78535 20.8087 4.89055 20.928 5.04968C23.998 9.13968 23.998 14.8597 20.928 18.9497C20.788 19.1497 20.558 19.2497 20.328 19.2497ZM14.52 3.78168C13.4 3.16168 11.97 3.32168 10.51 4.23168L7.59 6.06168C7.39 6.18168 7.16 6.25168 6.93 6.25168H5.5C3.08 6.25168 1.75 7.58168 1.75 10.0017V14.0017C1.75 16.4217 3.08 17.7517 5.5 17.7517H6.93C7.16 17.7517 7.39 17.8217 7.59 17.9417L10.51 19.7717C11.39 20.3217 12.25 20.5917 13.05 20.5917C13.5636 20.5962 14.0698 20.4688 14.52 20.2217C15.63 19.6017 16.25 18.3117 16.25 16.5917V7.41168C16.25 5.69168 15.63 4.40168 14.52 3.78168Z" fill="black" fill-opacity="0.2"/>
<path d="M20.328 19.2497C20.1887 19.2497 20.0522 19.2109 19.9337 19.1377C19.8152 19.0644 19.7195 18.9597 19.6572 18.8351C19.5949 18.7105 19.5685 18.571 19.581 18.4323C19.5935 18.2936 19.6444 18.1611 19.728 18.0497C22.398 14.4897 22.398 9.50968 19.728 5.94968C19.6087 5.79055 19.5574 5.59052 19.5855 5.39361C19.6137 5.1967 19.7189 5.01902 19.878 4.89968C20.0371 4.78033 20.2372 4.72908 20.4341 4.75721C20.631 4.78535 20.8087 4.89055 20.928 5.04968C23.998 9.13968 23.998 14.8597 20.928 18.9497C20.788 19.1497 20.558 19.2497 20.328 19.2497ZM14.52 3.78168C13.4 3.16168 11.97 3.32168 10.51 4.23168L7.59 6.06168C7.39 6.18168 7.16 6.25168 6.93 6.25168H5.5C3.08 6.25168 1.75 7.58168 1.75 10.0017V14.0017C1.75 16.4217 3.08 17.7517 5.5 17.7517H6.93C7.16 17.7517 7.39 17.8217 7.59 17.9417L10.51 19.7717C11.39 20.3217 12.25 20.5917 13.05 20.5917C13.5636 20.5962 14.0698 20.4688 14.52 20.2217C15.63 19.6017 16.25 18.3117 16.25 16.5917V7.41168C16.25 5.69168 15.63 4.40168 14.52 3.78168Z" fill="black" fill-opacity="0.2"/>
</g>
</g>
</svg>
