<svg width="25" height="24" viewBox="0 0 25 24" fill="none" xmlns="http://www.w3.org/2000/svg">
<g id="Iconsax/Bold/microphoneslash">
<g id="Vector">
<path d="M16.918 6.4216V7.5816L9.638 14.8616C9.14794 14.4153 8.75616 13.8718 8.48758 13.2658C8.21901 12.6598 8.07952 12.0045 8.078 11.3416V6.4216C8.078 4.3616 9.478 2.6516 11.378 2.1616C11.568 2.1116 11.748 2.2716 11.748 2.4616V4.0016C11.748 4.4116 12.088 4.7516 12.498 4.7516C12.908 4.7516 13.248 4.4116 13.248 4.0016V2.4616C13.248 2.2716 13.428 2.1116 13.618 2.1616C15.518 2.6516 16.918 4.3616 16.918 6.4216ZM20.312 9.8106V11.4006C20.312 15.4706 17.182 18.8206 13.202 19.1706V21.3006C13.202 21.6906 12.892 22.0006 12.502 22.0006C12.112 22.0006 11.802 21.6906 11.802 21.3006V19.1706C10.712 19.0706 9.682 18.7506 8.762 18.2406L9.792 17.2106C10.612 17.5906 11.532 17.8106 12.502 17.8106C16.042 17.8106 18.922 14.9306 18.922 11.4006V9.8106C18.922 9.4306 19.232 9.1206 19.622 9.1206C20.002 9.1206 20.312 9.4306 20.312 9.8106Z" fill="#001726"/>
<path d="M16.918 6.4216V7.5816L9.638 14.8616C9.14794 14.4153 8.75616 13.8718 8.48758 13.2658C8.21901 12.6598 8.07952 12.0045 8.078 11.3416V6.4216C8.078 4.3616 9.478 2.6516 11.378 2.1616C11.568 2.1116 11.748 2.2716 11.748 2.4616V4.0016C11.748 4.4116 12.088 4.7516 12.498 4.7516C12.908 4.7516 13.248 4.4116 13.248 4.0016V2.4616C13.248 2.2716 13.428 2.1116 13.618 2.1616C15.518 2.6516 16.918 4.3616 16.918 6.4216ZM20.312 9.8106V11.4006C20.312 15.4706 17.182 18.8206 13.202 19.1706V21.3006C13.202 21.6906 12.892 22.0006 12.502 22.0006C12.112 22.0006 11.802 21.6906 11.802 21.3006V19.1706C10.712 19.0706 9.682 18.7506 8.762 18.2406L9.792 17.2106C10.612 17.5906 11.532 17.8106 12.502 17.8106C16.042 17.8106 18.922 14.9306 18.922 11.4006V9.8106C18.922 9.4306 19.232 9.1206 19.622 9.1206C20.002 9.1206 20.312 9.4306 20.312 9.8106Z" fill="black" fill-opacity="0.2"/>
<path d="M16.918 6.4216V7.5816L9.638 14.8616C9.14794 14.4153 8.75616 13.8718 8.48758 13.2658C8.21901 12.6598 8.07952 12.0045 8.078 11.3416V6.4216C8.078 4.3616 9.478 2.6516 11.378 2.1616C11.568 2.1116 11.748 2.2716 11.748 2.4616V4.0016C11.748 4.4116 12.088 4.7516 12.498 4.7516C12.908 4.7516 13.248 4.4116 13.248 4.0016V2.4616C13.248 2.2716 13.428 2.1116 13.618 2.1616C15.518 2.6516 16.918 4.3616 16.918 6.4216ZM20.312 9.8106V11.4006C20.312 15.4706 17.182 18.8206 13.202 19.1706V21.3006C13.202 21.6906 12.892 22.0006 12.502 22.0006C12.112 22.0006 11.802 21.6906 11.802 21.3006V19.1706C10.712 19.0706 9.682 18.7506 8.762 18.2406L9.792 17.2106C10.612 17.5906 11.532 17.8106 12.502 17.8106C16.042 17.8106 18.922 14.9306 18.922 11.4006V9.8106C18.922 9.4306 19.232 9.1206 19.622 9.1206C20.002 9.1206 20.312 9.4306 20.312 9.8106Z" fill="black" fill-opacity="0.2"/>
</g>
<g id="Vector_2">
<path d="M16.918 10.0779V11.5279C16.918 14.1079 14.698 16.1779 12.058 15.9279C11.778 15.8979 11.498 15.8479 11.238 15.7579L16.918 10.0779ZM22.271 2.22891C21.971 1.92891 21.481 1.92891 21.181 2.22891L7.73097 15.6789C6.66454 14.5091 6.07575 12.9818 6.08097 11.3989V9.80891C6.08097 9.42891 5.77097 9.11891 5.38097 9.11891C5.00097 9.11891 4.69097 9.42891 4.69097 9.80891V11.3989C4.69097 13.4289 5.47097 15.2789 6.74097 16.6689L2.72097 20.6889C2.42097 20.9889 2.42097 21.4789 2.72097 21.7789C2.88097 21.9189 3.07097 21.9989 3.27097 21.9989C3.47097 21.9989 3.66097 21.9189 3.81097 21.7689L22.271 3.30891C22.581 3.00891 22.581 2.52891 22.271 2.22891Z" fill="#001726"/>
<path d="M16.918 10.0779V11.5279C16.918 14.1079 14.698 16.1779 12.058 15.9279C11.778 15.8979 11.498 15.8479 11.238 15.7579L16.918 10.0779ZM22.271 2.22891C21.971 1.92891 21.481 1.92891 21.181 2.22891L7.73097 15.6789C6.66454 14.5091 6.07575 12.9818 6.08097 11.3989V9.80891C6.08097 9.42891 5.77097 9.11891 5.38097 9.11891C5.00097 9.11891 4.69097 9.42891 4.69097 9.80891V11.3989C4.69097 13.4289 5.47097 15.2789 6.74097 16.6689L2.72097 20.6889C2.42097 20.9889 2.42097 21.4789 2.72097 21.7789C2.88097 21.9189 3.07097 21.9989 3.27097 21.9989C3.47097 21.9989 3.66097 21.9189 3.81097 21.7689L22.271 3.30891C22.581 3.00891 22.581 2.52891 22.271 2.22891Z" fill="black" fill-opacity="0.2"/>
<path d="M16.918 10.0779V11.5279C16.918 14.1079 14.698 16.1779 12.058 15.9279C11.778 15.8979 11.498 15.8479 11.238 15.7579L16.918 10.0779ZM22.271 2.22891C21.971 1.92891 21.481 1.92891 21.181 2.22891L7.73097 15.6789C6.66454 14.5091 6.07575 12.9818 6.08097 11.3989V9.80891C6.08097 9.42891 5.77097 9.11891 5.38097 9.11891C5.00097 9.11891 4.69097 9.42891 4.69097 9.80891V11.3989C4.69097 13.4289 5.47097 15.2789 6.74097 16.6689L2.72097 20.6889C2.42097 20.9889 2.42097 21.4789 2.72097 21.7789C2.88097 21.9189 3.07097 21.9989 3.27097 21.9989C3.47097 21.9989 3.66097 21.9189 3.81097 21.7689L22.271 3.30891C22.581 3.00891 22.581 2.52891 22.271 2.22891Z" fill="black" fill-opacity="0.2"/>
</g>
</g>
</svg>
