<svg width="24" height="24" viewBox="0 0 24 24" fill="none" xmlns="http://www.w3.org/2000/svg">
<g id="Iconsax/Outline/camera">
<path id="Vector" d="M17.242 22.75H6.76203C3.96203 22.75 2.18203 21.08 2.02203 18.29L1.50203 10.04C1.46012 9.42669 1.54603 8.81136 1.75432 8.23298C1.9626 7.6546 2.28872 7.12578 2.71203 6.68C3.56203 5.77 4.76203 5.25 6.00203 5.25C6.32203 5.25 6.63203 5.06 6.78203 4.76L7.50203 3.33C8.09203 2.16 9.57203 1.25 10.862 1.25H13.152C14.442 1.25 15.912 2.16 16.502 3.32L17.222 4.78C17.372 5.06 17.672 5.25 18.002 5.25C19.242 5.25 20.442 5.77 21.292 6.68C22.152 7.6 22.582 8.79 22.502 10.04L21.982 18.3C21.802 21.13 20.072 22.75 17.242 22.75ZM10.862 2.75C10.122 2.75 9.18203 3.33 8.84203 4L8.12203 5.44C7.70203 6.25 6.89203 6.75 6.00203 6.75C5.16203 6.75 4.38203 7.09 3.80203 7.7C3.23203 8.31 2.94203 9.11 3.00203 9.94L3.52203 18.2C3.64203 20.22 4.73203 21.25 6.76203 21.25H17.242C19.262 21.25 20.352 20.22 20.482 18.2L21.002 9.94C21.029 9.53176 20.972 9.12232 20.8344 8.73703C20.6967 8.35173 20.4815 7.99877 20.202 7.7C19.622 7.09 18.842 6.75 18.002 6.75C17.112 6.75 16.302 6.25 15.882 5.46L15.152 4C14.822 3.34 13.882 2.76 13.142 2.76H10.862V2.75Z" fill="white"/>
<path id="Vector_2" d="M13.5 8.75H10.5C10.09 8.75 9.75 8.41 9.75 8C9.75 7.59 10.09 7.25 10.5 7.25H13.5C13.91 7.25 14.25 7.59 14.25 8C14.25 8.41 13.91 8.75 13.5 8.75ZM12 18.75C9.79 18.75 8 16.96 8 14.75C8 12.54 9.79 10.75 12 10.75C14.21 10.75 16 12.54 16 14.75C16 16.96 14.21 18.75 12 18.75ZM12 12.25C11.337 12.25 10.7011 12.5134 10.2322 12.9822C9.76339 13.4511 9.5 14.087 9.5 14.75C9.5 15.413 9.76339 16.0489 10.2322 16.5178C10.7011 16.9866 11.337 17.25 12 17.25C12.663 17.25 13.2989 16.9866 13.7678 16.5178C14.2366 16.0489 14.5 15.413 14.5 14.75C14.5 14.087 14.2366 13.4511 13.7678 12.9822C13.2989 12.5134 12.663 12.25 12 12.25Z" fill="white"/>
</g>
</svg>
