<svg width="24" height="24" viewBox="0 0 24 24" fill="none" xmlns="http://www.w3.org/2000/svg">
<g id="Iconsax/Bulk/car">
<path id="Vector" opacity="0.4" d="M22.1819 13.66C22.0319 12.01 21.5919 10.25 18.3819 10.25H5.62094C2.41094 10.25 1.98094 12.01 1.82094 13.66L1.26094 19.75C1.19094 20.51 1.44094 21.27 1.96094 21.84C2.49094 22.42 3.24094 22.75 4.04094 22.75H5.92094C7.54094 22.75 7.85094 21.82 8.05094 21.21L8.25094 20.61C8.48094 19.92 8.54094 19.75 9.44094 19.75H14.5609C15.4609 19.75 15.4909 19.85 15.7509 20.61L15.9509 21.21C16.1509 21.82 16.4609 22.75 18.0809 22.75H19.9609C20.7509 22.75 21.5109 22.42 22.0409 21.84C22.5609 21.27 22.8109 20.51 22.7409 19.75L22.1819 13.66Z" fill="#0250C6"/>
<path id="Vector_2" d="M21 7.24813H19.98L19.6 5.43813C19.24 3.68813 18.49 2.07812 15.51 2.07812H8.49C5.51 2.07812 4.76 3.68813 4.4 5.43813L4.02 7.24813H3C2.59 7.24813 2.25 7.58813 2.25 7.99813C2.25 8.40812 2.59 8.74813 3 8.74813H3.71L3.29 10.7481C3.83 10.4381 4.58 10.2481 5.62 10.2481H18.38C19.42 10.2481 20.17 10.4381 20.71 10.7481L20.29 8.74813H21C21.41 8.74813 21.75 8.40812 21.75 7.99813C21.75 7.58813 21.41 7.24813 21 7.24813ZM9 15.7501H6C5.59 15.7501 5.25 15.4101 5.25 15.0001C5.25 14.5901 5.59 14.2501 6 14.2501H9C9.41 14.2501 9.75 14.5901 9.75 15.0001C9.75 15.4101 9.41 15.7501 9 15.7501ZM18 15.7501H15C14.59 15.7501 14.25 15.4101 14.25 15.0001C14.25 14.5901 14.59 14.2501 15 14.2501H18C18.41 14.2501 18.75 14.5901 18.75 15.0001C18.75 15.4101 18.41 15.7501 18 15.7501Z" fill="#0250C6"/>
</g>
</svg>
