<svg width="28" height="28" viewBox="0 0 28 28" fill="none" xmlns="http://www.w3.org/2000/svg">
<path d="M2.8 0H25.2C25.9426 0 26.6548 0.294999 27.1799 0.820101C27.705 1.3452 28 2.05739 28 2.8V19.6C28 20.3426 27.705 21.0548 27.1799 21.5799C26.6548 22.105 25.9426 22.4 25.2 22.4H19.6L14 28L8.4 22.4H2.8C2.05739 22.4 1.3452 22.105 0.820101 21.5799C0.294999 21.0548 0 20.3426 0 19.6V2.8C0 2.05739 0.294999 1.3452 0.820101 0.820101C1.3452 0.294999 2.05739 0 2.8 0ZM2.8 2.8V19.6H9.562L14 24.038L18.438 19.6H25.2V2.8H2.8Z" fill="#DDDFE2"/>
<path d="M14.4999 13.3364L12.4633 14.566L12.9995 12.2477L11.2012 10.6877L13.5737 10.4872L14.4999 8.29891L15.4262 10.4872L17.7987 10.6877L16.0003 12.2477L16.5366 14.566M19.9166 10.0052L16.022 9.67475L14.4999 6.0835L12.9778 9.67475L9.08325 10.0052L12.0353 12.5672L11.1524 16.3752L14.4999 14.3547L17.8474 16.3752L16.9591 12.5672L19.9166 10.0052Z" fill="#DDDFE2"/>
</svg>
