<svg width="40" height="40" viewBox="0 0 40 40" fill="none" xmlns="http://www.w3.org/2000/svg">
<g id="Iconsax/Bulk/cup">
<path id="Vector" opacity="0.4" d="M30 34.1673H28.3333V33.7507C28.3333 31.9173 26.8333 30.4173 25 30.4173H21.25V26.6007C20.8333 26.6507 20.4167 26.6673 20 26.6673C19.5833 26.6673 19.1667 26.6507 18.75 26.6007V30.4173H15C13.1667 30.4173 11.6667 31.9173 11.6667 33.7507V34.1673H9.99999C9.31665 34.1673 8.74999 34.734 8.74999 35.4173C8.74999 36.1007 9.31665 36.6673 9.99999 36.6673H30C30.6833 36.6673 31.25 36.1007 31.25 35.4173C31.25 34.734 30.6833 34.1673 30 34.1673ZM9.19999 19.4007C8.09999 18.984 7.13332 18.3007 6.36665 17.534C4.81665 15.8173 3.79999 13.7673 3.79999 11.3673C3.79999 8.96732 5.68332 7.08398 8.08332 7.08398H9.01665C8.58332 7.96732 8.33332 8.95065 8.33332 10.0007V15.0007C8.33332 16.5673 8.63332 18.0507 9.19999 19.4007ZM36.2 11.3673C36.2 13.7673 35.1833 15.8173 33.6333 17.534C32.8667 18.3007 31.9 18.984 30.8 19.4007C31.3667 18.0507 31.6667 16.5673 31.6667 15.0007V10.0007C31.6667 8.95065 31.4167 7.96732 30.9833 7.08398H31.9167C34.3167 7.08398 36.2 8.96732 36.2 11.3673Z" fill="#FFB841"/>
<path id="Vector_2" d="M25 3.33398H15C11.3166 3.33398 8.33331 6.31732 8.33331 10.0007V15.0007C8.33331 21.4507 13.55 26.6673 20 26.6673C26.45 26.6673 31.6666 21.4507 31.6666 15.0007V10.0007C31.6666 6.31732 28.6833 3.33398 25 3.33398ZM24.7333 14.084L23.7 15.3507C23.5333 15.534 23.4166 15.9007 23.4333 16.1507L23.5333 17.784C23.6 18.784 22.8833 19.3006 21.95 18.934L20.4333 18.334C20.1504 18.2506 19.8495 18.2506 19.5666 18.334L18.05 18.934C17.1166 19.3006 16.4 18.784 16.4666 17.784L16.5666 16.1507C16.573 15.8612 16.4787 15.5784 16.3 15.3507L15.2666 14.084C14.6166 13.3173 14.9 12.4673 15.8666 12.2173L17.45 11.8173C17.7 11.7507 18 11.5173 18.1333 11.3007L19.0166 9.93398C19.5666 9.08398 20.4333 9.08398 20.9833 9.93398L21.8666 11.3007C22 11.5173 22.3 11.7507 22.55 11.8173L24.1333 12.2173C25.1 12.4673 25.3833 13.3173 24.7333 14.084Z" fill="#FFB841"/>
<path id="Vector_3" opacity="0.4" d="M24.7333 14.0824L23.7 15.3491C23.5333 15.5324 23.4167 15.8991 23.4333 16.1491L23.5333 17.7824C23.6 18.7824 22.8833 19.2991 21.95 18.9324L20.4333 18.3324C20.1504 18.2491 19.8495 18.2491 19.5667 18.3324L18.05 18.9324C17.1167 19.2991 16.4 18.7824 16.4667 17.7824L16.5667 16.1491C16.573 15.8596 16.4787 15.5769 16.3 15.3491L15.2667 14.0824C14.6167 13.3158 14.9 12.4658 15.8667 12.2158L17.45 11.8158C17.7 11.7491 18 11.5158 18.1333 11.2991L19.0167 9.93242C19.5667 9.08242 20.4333 9.08242 20.9833 9.93242L21.8667 11.2991C22 11.5158 22.3 11.7491 22.55 11.8158L24.1333 12.2158C25.1 12.4658 25.3833 13.3158 24.7333 14.0824Z" fill="#FFB841"/>
</g>
</svg>
