<svg width="25" height="25" viewBox="0 0 25 25" fill="none" xmlns="http://www.w3.org/2000/svg">
<g id="Iconsax/Outline/profile2user">
<path id="Vector" d="M9.65905 12.12H9.57905C9.51947 12.11 9.45863 12.11 9.39905 12.12C6.49905 12.03 4.30905 9.75 4.30905 6.94C4.30905 4.08 6.63905 1.75 9.49905 1.75C12.359 1.75 14.6891 4.08 14.6891 6.94C14.6791 9.75 12.4791 12.03 9.68905 12.12H9.65905ZM9.49905 3.25C8.52121 3.25264 7.58418 3.64225 6.89274 4.33369C6.2013 5.02513 5.81169 5.96216 5.80905 6.94C5.80905 8.94 7.36905 10.55 9.35905 10.62C9.41905 10.61 9.54905 10.61 9.67905 10.62C11.6391 10.53 13.1791 8.92 13.1891 6.94C13.1864 5.96216 12.7968 5.02513 12.1054 4.33369C11.4139 3.64225 10.4769 3.25264 9.49905 3.25ZM17.0381 12.25C17.0081 12.25 16.9781 12.25 16.9481 12.24C16.5381 12.28 16.1181 11.99 16.0781 11.58C16.0381 11.17 16.2881 10.8 16.6981 10.75C16.8181 10.74 16.9481 10.74 17.0581 10.74C18.5181 10.66 19.6581 9.46 19.6581 7.99C19.6581 6.47 18.4281 5.24 16.9081 5.24C16.81 5.24132 16.7127 5.22316 16.6218 5.18657C16.5309 5.14997 16.4481 5.09567 16.3783 5.02683C16.3085 4.95798 16.2531 4.87595 16.2153 4.78551C16.1775 4.69508 16.158 4.59803 16.1581 4.5C16.1581 4.09 16.4981 3.75 16.9081 3.75C18.0344 3.75264 19.1139 4.20126 19.9103 4.99771C20.7068 5.79417 21.1554 6.87364 21.1581 8C21.1581 10.3 19.3581 12.16 17.0681 12.25H17.0381ZM9.67205 23.05C7.71205 23.05 5.74205 22.55 4.25205 21.55C2.86205 20.63 2.10205 19.37 2.10205 18C2.10205 16.63 2.86205 15.36 4.25205 14.43C7.25205 12.44 12.1121 12.44 15.0921 14.43C16.4721 15.35 17.2421 16.61 17.2421 17.98C17.2421 19.35 16.4821 20.62 15.0921 21.55C13.5921 22.55 11.6321 23.05 9.67205 23.05ZM5.08205 15.69C4.12205 16.33 3.60205 17.15 3.60205 18.01C3.60205 18.86 4.13205 19.68 5.08205 20.31C7.57205 21.98 11.7721 21.98 14.2621 20.31C15.2221 19.67 15.7421 18.85 15.7421 17.99C15.7421 17.14 15.2121 16.32 14.2621 15.69C11.7721 14.03 7.57205 14.03 5.08205 15.69ZM18.8381 21.25C18.4881 21.25 18.1781 21.01 18.1081 20.65C18.0693 20.4553 18.1083 20.2532 18.2167 20.0868C18.3251 19.9205 18.4943 19.8032 18.6881 19.76C19.3181 19.63 19.8981 19.38 20.3481 19.03C20.9181 18.6 21.2281 18.06 21.2281 17.49C21.2281 16.92 20.9181 16.38 20.3581 15.96C19.9181 15.62 19.3681 15.38 18.7181 15.23C18.5235 15.1856 18.3544 15.0661 18.2476 14.8975C18.1408 14.7289 18.105 14.5249 18.1481 14.33C18.2381 13.93 18.6381 13.67 19.0481 13.76C19.9081 13.95 20.6581 14.29 21.2681 14.76C22.1981 15.46 22.7281 16.45 22.7281 17.49C22.7281 18.53 22.1881 19.52 21.2581 20.23C20.6381 20.71 19.8581 21.06 18.9981 21.23C18.9381 21.25 18.8881 21.25 18.8381 21.25Z" fill="white"/>
</g>
</svg>
