<svg width="24" height="24" viewBox="0 0 24 24" fill="none" xmlns="http://www.w3.org/2000/svg">
<g id="Iconsax/Outline/dollarcircle">
<path id="Vector" d="M13.4 17.4181H10.89C9.24997 17.4181 7.91997 16.0381 7.91997 14.3381C7.91997 13.9281 8.25997 13.5881 8.66997 13.5881C9.07997 13.5881 9.41997 13.9281 9.41997 14.3381C9.41997 15.2081 10.08 15.9181 10.89 15.9181H13.4C14.05 15.9181 14.59 15.3381 14.59 14.6381C14.59 13.7681 14.28 13.5981 13.77 13.4181L9.73997 11.9981C8.95997 11.7281 7.90997 11.1481 7.90997 9.35812C7.90997 7.81812 9.11997 6.57812 10.6 6.57812H13.11C14.75 6.57812 16.08 7.95812 16.08 9.65812C16.08 10.0681 15.74 10.4081 15.33 10.4081C14.92 10.4081 14.58 10.0681 14.58 9.65812C14.58 8.78813 13.92 8.07812 13.11 8.07812H10.6C9.94997 8.07812 9.40997 8.65812 9.40997 9.35812C9.40997 10.2281 9.71997 10.3981 10.23 10.5781L14.26 11.9981C15.04 12.2681 16.09 12.8481 16.09 14.6381C16.08 16.1681 14.88 17.4181 13.4 17.4181Z" fill="#999999"/>
<path id="Vector_2" d="M12 18.75C11.59 18.75 11.25 18.41 11.25 18V6C11.25 5.59 11.59 5.25 12 5.25C12.41 5.25 12.75 5.59 12.75 6V18C12.75 18.41 12.41 18.75 12 18.75Z" fill="#999999"/>
<path id="Vector_3" d="M11.75 22.5C5.82 22.5 1 17.68 1 11.75C1 5.82 5.82 1 11.75 1C17.68 1 22.5 5.82 22.5 11.75C22.5 17.68 17.68 22.5 11.75 22.5ZM11.75 2.5C6.65 2.5 2.5 6.65 2.5 11.75C2.5 16.85 6.65 21 11.75 21C16.85 21 21 16.85 21 11.75C21 6.65 16.85 2.5 11.75 2.5Z" fill="#999999"/>
</g>
</svg>
