<svg width="24" height="25" viewBox="0 0 24 25" fill="none" xmlns="http://www.w3.org/2000/svg">
<g id="Iconsax/Outline/edit">
<path id="Vector" d="M15 23.25H9C3.57 23.25 1.25 20.93 1.25 15.5V9.5C1.25 4.07 3.57 1.75 9 1.75H11C11.41 1.75 11.75 2.09 11.75 2.5C11.75 2.91 11.41 3.25 11 3.25H9C4.39 3.25 2.75 4.89 2.75 9.5V15.5C2.75 20.11 4.39 21.75 9 21.75H15C19.61 21.75 21.25 20.11 21.25 15.5V13.5C21.25 13.09 21.59 12.75 22 12.75C22.41 12.75 22.75 13.09 22.75 13.5V15.5C22.75 20.93 20.43 23.25 15 23.25Z" fill="#001726"/>
<path id="Vector_2" d="M8.50002 18.1886C7.89002 18.1886 7.33002 17.9686 6.92002 17.5686C6.43002 17.0786 6.22002 16.3686 6.33002 15.6186L6.76002 12.6086C6.84002 12.0286 7.22002 11.2786 7.63002 10.8686L15.51 2.98859C17.5 0.998594 19.52 0.998594 21.51 2.98859C22.6 4.07859 23.09 5.18859 22.99 6.29859C22.9 7.19859 22.42 8.07859 21.51 8.97859L13.63 16.8586C13.22 17.2686 12.47 17.6486 11.89 17.7286L8.88002 18.1586C8.75002 18.1886 8.62002 18.1886 8.50002 18.1886ZM16.57 4.04859L8.69002 11.9286C8.50002 12.1186 8.28002 12.5586 8.24002 12.8186L7.81002 15.8286C7.77002 16.1186 7.83002 16.3586 7.98002 16.5086C8.13002 16.6586 8.37002 16.7186 8.66002 16.6786L11.67 16.2486C11.93 16.2086 12.38 15.9886 12.56 15.7986L20.44 7.91859C21.09 7.26859 21.43 6.68859 21.48 6.14859C21.54 5.49859 21.2 4.80859 20.44 4.03859C18.84 2.43859 17.74 2.88859 16.57 4.04859Z" fill="#001726"/>
<path id="Vector_3" d="M19.85 10.3303C19.78 10.3303 19.71 10.3203 19.65 10.3003C18.3504 9.93022 17.1668 9.23449 16.2113 8.279C15.2558 7.32351 14.5601 6.13989 14.19 4.84027C14.1374 4.64803 14.1625 4.44284 14.2597 4.26888C14.357 4.09493 14.5187 3.96615 14.71 3.91027C15.11 3.80027 15.52 4.03027 15.63 4.43027C16.23 6.56027 17.92 8.25027 20.05 8.85027C20.45 8.96027 20.68 9.38027 20.57 9.78027C20.48 10.1203 20.18 10.3303 19.85 10.3303Z" fill="#001726"/>
</g>
</svg>
