<svg width="64" height="64" viewBox="0 0 64 64" fill="none" xmlns="http://www.w3.org/2000/svg">
<path opacity="0.4" d="M43.174 5.33301H20.8273C11.1207 5.33301 5.33398 11.1197 5.33398 20.8263V43.1463C5.33398 52.8797 11.1207 58.6663 20.8273 58.6663H43.1473C52.854 58.6663 58.6407 52.8797 58.6407 43.173V20.8263C58.6673 11.1197 52.8807 5.33301 43.174 5.33301Z" fill="#10BB76"/>
<path d="M42 44C42 44 38.25 40 32 40C25.75 40 22 44 22 44" stroke="#10BB76" stroke-width="2" stroke-linecap="round" stroke-linejoin="round"/>
<path d="M23.3336 29.011C26.1024 29.011 28.347 26.7665 28.347 23.9977C28.347 21.2289 26.1024 18.9844 23.3336 18.9844C20.5649 18.9844 18.3203 21.2289 18.3203 23.9977C18.3203 26.7665 20.5649 29.011 23.3336 29.011Z" fill="#10BB76"/>
<path d="M41.3336 29.011C44.1024 29.011 46.347 26.7665 46.347 23.9977C46.347 21.2289 44.1024 18.9844 41.3336 18.9844C38.5649 18.9844 36.3203 21.2289 36.3203 23.9977C36.3203 26.7665 38.5649 29.011 41.3336 29.011Z" fill="#10BB76"/>
</svg>
