<svg width="24" height="24" viewBox="0 0 24 24" fill="none" xmlns="http://www.w3.org/2000/svg">
<path d="M23.175 4.37871H22.6462V1.22496C22.6462 1.02246 22.485 0.861206 22.2825 0.861206H4.725C3.55875 0.861206 2.60625 1.80996 2.60625 2.97996C2.60625 3.00996 2.61 3.03621 2.61 3.06621C2.61 3.06996 2.60625 3.07746 2.60625 3.08121V11.5337C1.09125 12.0737 0 13.5212 0 15.22C0 17.38 1.755 19.135 3.915 19.135C5.1975 19.135 6.33375 18.5125 7.05 17.5562H22.6688C23.4037 17.5562 24 16.96 24 16.225V5.20371C24 4.74996 23.6287 4.37871 23.175 4.37871ZM23.2725 12.5275H20.505C19.7175 12.5275 19.0763 11.8862 19.0763 11.0987C19.0763 10.3112 19.7175 9.66996 20.505 9.66996H23.2725V12.5275ZM4.725 1.58871H21.915V4.37121H4.725C3.95625 4.37121 3.33375 3.74871 3.33375 2.97996C3.33375 2.21496 3.96 1.58871 4.725 1.58871ZM3.915 18.4112C2.15625 18.4112 0.7275 16.9825 0.7275 15.2237C0.7275 13.465 2.15625 12.0362 3.915 12.0362C5.67375 12.0362 7.1025 13.465 7.1025 15.2237C7.1025 16.9825 5.67375 18.4112 3.915 18.4112ZM22.6688 16.8325H7.48125C7.70625 16.3412 7.83 15.7975 7.83 15.2237C7.83 13.0637 6.075 11.3087 3.915 11.3087C3.71625 11.3087 3.525 11.3275 3.3375 11.3575V4.57746C3.70875 4.90371 4.19625 5.10246 4.72875 5.10246H22.0312C22.0425 5.10246 22.05 5.10996 22.0613 5.10996H23.175C23.2275 5.10996 23.2725 5.15496 23.2725 5.20746V8.94995H20.505C19.3162 8.94995 18.3488 9.91745 18.3488 11.1062C18.3488 12.295 19.3162 13.2625 20.505 13.2625H23.2725V16.2362C23.2725 16.5625 23.0025 16.8325 22.6688 16.8325Z" fill="black"/>
<path d="M23.175 4.37871H22.6462V1.22496C22.6462 1.02246 22.485 0.861206 22.2825 0.861206H4.725C3.55875 0.861206 2.60625 1.80996 2.60625 2.97996C2.60625 3.00996 2.61 3.03621 2.61 3.06621C2.61 3.06996 2.60625 3.07746 2.60625 3.08121V11.5337C1.09125 12.0737 0 13.5212 0 15.22C0 17.38 1.755 19.135 3.915 19.135C5.1975 19.135 6.33375 18.5125 7.05 17.5562H22.6688C23.4037 17.5562 24 16.96 24 16.225V5.20371C24 4.74996 23.6287 4.37871 23.175 4.37871ZM23.2725 12.5275H20.505C19.7175 12.5275 19.0763 11.8862 19.0763 11.0987C19.0763 10.3112 19.7175 9.66996 20.505 9.66996H23.2725V12.5275ZM4.725 1.58871H21.915V4.37121H4.725C3.95625 4.37121 3.33375 3.74871 3.33375 2.97996C3.33375 2.21496 3.96 1.58871 4.725 1.58871ZM3.915 18.4112C2.15625 18.4112 0.7275 16.9825 0.7275 15.2237C0.7275 13.465 2.15625 12.0362 3.915 12.0362C5.67375 12.0362 7.1025 13.465 7.1025 15.2237C7.1025 16.9825 5.67375 18.4112 3.915 18.4112ZM22.6688 16.8325H7.48125C7.70625 16.3412 7.83 15.7975 7.83 15.2237C7.83 13.0637 6.075 11.3087 3.915 11.3087C3.71625 11.3087 3.525 11.3275 3.3375 11.3575V4.57746C3.70875 4.90371 4.19625 5.10246 4.72875 5.10246H22.0312C22.0425 5.10246 22.05 5.10996 22.0613 5.10996H23.175C23.2275 5.10996 23.2725 5.15496 23.2725 5.20746V8.94995H20.505C19.3162 8.94995 18.3488 9.91745 18.3488 11.1062C18.3488 12.295 19.3162 13.2625 20.505 13.2625H23.2725V16.2362C23.2725 16.5625 23.0025 16.8325 22.6688 16.8325Z" stroke="black"/>
<path d="M23.175 4.37871H22.6462V1.22496C22.6462 1.02246 22.485 0.861206 22.2825 0.861206H4.725C3.55875 0.861206 2.60625 1.80996 2.60625 2.97996C2.60625 3.00996 2.61 3.03621 2.61 3.06621C2.61 3.06996 2.60625 3.07746 2.60625 3.08121V11.5337C1.09125 12.0737 0 13.5212 0 15.22C0 17.38 1.755 19.135 3.915 19.135C5.1975 19.135 6.33375 18.5125 7.05 17.5562H22.6688C23.4037 17.5562 24 16.96 24 16.225V5.20371C24 4.74996 23.6287 4.37871 23.175 4.37871ZM23.2725 12.5275H20.505C19.7175 12.5275 19.0763 11.8862 19.0763 11.0987C19.0763 10.3112 19.7175 9.66996 20.505 9.66996H23.2725V12.5275ZM4.725 1.58871H21.915V4.37121H4.725C3.95625 4.37121 3.33375 3.74871 3.33375 2.97996C3.33375 2.21496 3.96 1.58871 4.725 1.58871ZM3.915 18.4112C2.15625 18.4112 0.7275 16.9825 0.7275 15.2237C0.7275 13.465 2.15625 12.0362 3.915 12.0362C5.67375 12.0362 7.1025 13.465 7.1025 15.2237C7.1025 16.9825 5.67375 18.4112 3.915 18.4112ZM22.6688 16.8325H7.48125C7.70625 16.3412 7.83 15.7975 7.83 15.2237C7.83 13.0637 6.075 11.3087 3.915 11.3087C3.71625 11.3087 3.525 11.3275 3.3375 11.3575V4.57746C3.70875 4.90371 4.19625 5.10246 4.72875 5.10246H22.0312C22.0425 5.10246 22.05 5.10996 22.0613 5.10996H23.175C23.2275 5.10996 23.2725 5.15496 23.2725 5.20746V8.94995H20.505C19.3162 8.94995 18.3488 9.91745 18.3488 11.1062C18.3488 12.295 19.3162 13.2625 20.505 13.2625H23.2725V16.2362C23.2725 16.5625 23.0025 16.8325 22.6688 16.8325Z" stroke="black" stroke-opacity="0.2"/>
<path d="M23.175 4.37871H22.6462V1.22496C22.6462 1.02246 22.485 0.861206 22.2825 0.861206H4.725C3.55875 0.861206 2.60625 1.80996 2.60625 2.97996C2.60625 3.00996 2.61 3.03621 2.61 3.06621C2.61 3.06996 2.60625 3.07746 2.60625 3.08121V11.5337C1.09125 12.0737 0 13.5212 0 15.22C0 17.38 1.755 19.135 3.915 19.135C5.1975 19.135 6.33375 18.5125 7.05 17.5562H22.6688C23.4037 17.5562 24 16.96 24 16.225V5.20371C24 4.74996 23.6287 4.37871 23.175 4.37871ZM23.2725 12.5275H20.505C19.7175 12.5275 19.0763 11.8862 19.0763 11.0987C19.0763 10.3112 19.7175 9.66996 20.505 9.66996H23.2725V12.5275ZM4.725 1.58871H21.915V4.37121H4.725C3.95625 4.37121 3.33375 3.74871 3.33375 2.97996C3.33375 2.21496 3.96 1.58871 4.725 1.58871ZM3.915 18.4112C2.15625 18.4112 0.7275 16.9825 0.7275 15.2237C0.7275 13.465 2.15625 12.0362 3.915 12.0362C5.67375 12.0362 7.1025 13.465 7.1025 15.2237C7.1025 16.9825 5.67375 18.4112 3.915 18.4112ZM22.6688 16.8325H7.48125C7.70625 16.3412 7.83 15.7975 7.83 15.2237C7.83 13.0637 6.075 11.3087 3.915 11.3087C3.71625 11.3087 3.525 11.3275 3.3375 11.3575V4.57746C3.70875 4.90371 4.19625 5.10246 4.72875 5.10246H22.0312C22.0425 5.10246 22.05 5.10996 22.0613 5.10996H23.175C23.2275 5.10996 23.2725 5.15496 23.2725 5.20746V8.94995H20.505C19.3162 8.94995 18.3488 9.91745 18.3488 11.1062C18.3488 12.295 19.3162 13.2625 20.505 13.2625H23.2725V16.2362C23.2725 16.5625 23.0025 16.8325 22.6688 16.8325Z" stroke="black" stroke-opacity="0.2"/>
</svg>
