<svg width="24" height="24" viewBox="0 0 24 24" fill="none" xmlns="http://www.w3.org/2000/svg">
<g clip-path="url(#clip0_907_509)">
<path d="M2.65125 16.47L2.91 16.7287L3.40125 17.22L2.91 17.7112L2.65312 17.9681L2.65125 17.97C2.65121 17.97 2.65118 17.9701 2.65114 17.9701C2.65104 17.9702 2.65095 17.9703 2.65085 17.9704C2.65083 17.9704 2.65081 17.9704 2.6508 17.9704C2.50875 18.113 2.5089 18.3414 2.65125 18.4837C2.7225 18.555 2.81625 18.5887 2.91 18.5887C3.00292 18.5887 3.09586 18.5556 3.16687 18.4856C3.16747 18.485 3.16806 18.4844 3.16865 18.4838C3.16869 18.4838 3.16872 18.4838 3.16875 18.4837L3.91687 17.7356L3.91875 17.7337L3.92062 17.7356L4.66875 18.4837M2.65125 16.47L4.66875 18.4837M2.65125 16.47C2.64061 16.4594 2.63078 16.4482 2.62173 16.4367C2.62173 16.4367 2.62173 16.4367 2.62173 16.4367C2.50954 16.2938 2.51938 16.0881 2.65125 15.9562C2.6525 15.955 2.65376 15.9537 2.65502 15.9525C2.72624 15.8833 2.81819 15.8489 2.91 15.8494C3.00207 15.8498 3.094 15.8854 3.16473 15.956M2.65125 16.47L3.16473 15.956M4.66875 18.4837C4.66937 18.4844 4.66999 18.485 4.67062 18.4856L4.66875 18.4837ZM3.16473 15.956C3.16482 15.9561 3.16491 15.9562 3.165 15.9562L3.915 16.7062L3.91875 16.7025L4.66166 15.9596M3.16473 15.956L5.1865 17.9702C5.18642 17.9702 5.18633 17.9701 5.18625 17.97L5.18437 17.9681L4.9275 17.7112L4.43625 17.22L4.9275 16.7287L5.1825 16.4737L5.18625 16.47M4.66166 15.9596L4.90873 16.2L4.90873 16.2L4.92205 16.2129L4.9275 16.2182L5.18435 16.4681L5.18625 16.47M4.66166 15.9596L4.665 15.9562C4.66506 15.9562 4.66512 15.9561 4.66518 15.9561C4.66637 15.9549 4.66757 15.9537 4.66877 15.9525M4.66166 15.9596L4.66877 15.9525M5.18625 16.47L5.18437 16.4681L4.9275 16.2112L4.92562 16.2094L4.66877 15.9525M5.18625 16.47L4.66877 15.9525" fill="black" stroke="black" stroke-width="15"/>
<path d="M23.175 6.37871H22.6462V3.22496C22.6462 3.02246 22.485 2.86121 22.2825 2.86121H4.725C3.55875 2.86121 2.60625 3.80996 2.60625 4.97996C2.60625 5.00996 2.61 5.03621 2.61 5.06621C2.61 5.06996 2.60625 5.07746 2.60625 5.08121V13.5337C1.09125 14.0737 0 15.5212 0 17.22C0 19.38 1.755 21.135 3.915 21.135C5.1975 21.135 6.33375 20.5125 7.05 19.5562H22.6688C23.4038 19.5562 24 18.96 24 18.225V7.20371C24 6.74996 23.6287 6.37871 23.175 6.37871ZM23.2725 14.5275H20.505C19.7175 14.5275 19.0762 13.8862 19.0762 13.0987C19.0762 12.3112 19.7175 11.67 20.505 11.67H23.2725V14.5275ZM4.725 3.58871H21.915V6.37121H4.725C3.95625 6.37121 3.33375 5.74871 3.33375 4.97996C3.33375 4.21496 3.96 3.58871 4.725 3.58871ZM3.915 20.4112C2.15625 20.4112 0.7275 18.9825 0.7275 17.2237C0.7275 15.465 2.15625 14.0362 3.915 14.0362C5.67375 14.0362 7.1025 15.465 7.1025 17.2237C7.1025 18.9825 5.67375 20.4112 3.915 20.4112ZM22.6688 18.8325H7.48125C7.70625 18.3412 7.83 17.7975 7.83 17.2237C7.83 15.0637 6.075 13.3087 3.915 13.3087C3.71625 13.3087 3.525 13.3275 3.3375 13.3575V6.57746C3.70875 6.90371 4.19625 7.10246 4.72875 7.10246H22.0312C22.0425 7.10246 22.05 7.10996 22.0613 7.10996H23.175C23.2275 7.10996 23.2725 7.15496 23.2725 7.20746V10.95H20.505C19.3163 10.95 18.3488 11.9175 18.3488 13.1062C18.3488 14.295 19.3163 15.2625 20.505 15.2625H23.2725V18.2362C23.2725 18.5625 23.0025 18.8325 22.6688 18.8325Z" fill="black"/>
<path d="M23.175 6.37871H22.6462V3.22496C22.6462 3.02246 22.485 2.86121 22.2825 2.86121H4.725C3.55875 2.86121 2.60625 3.80996 2.60625 4.97996C2.60625 5.00996 2.61 5.03621 2.61 5.06621C2.61 5.06996 2.60625 5.07746 2.60625 5.08121V13.5337C1.09125 14.0737 0 15.5212 0 17.22C0 19.38 1.755 21.135 3.915 21.135C5.1975 21.135 6.33375 20.5125 7.05 19.5562H22.6688C23.4038 19.5562 24 18.96 24 18.225V7.20371C24 6.74996 23.6287 6.37871 23.175 6.37871ZM23.2725 14.5275H20.505C19.7175 14.5275 19.0762 13.8862 19.0762 13.0987C19.0762 12.3112 19.7175 11.67 20.505 11.67H23.2725V14.5275ZM4.725 3.58871H21.915V6.37121H4.725C3.95625 6.37121 3.33375 5.74871 3.33375 4.97996C3.33375 4.21496 3.96 3.58871 4.725 3.58871ZM3.915 20.4112C2.15625 20.4112 0.7275 18.9825 0.7275 17.2237C0.7275 15.465 2.15625 14.0362 3.915 14.0362C5.67375 14.0362 7.1025 15.465 7.1025 17.2237C7.1025 18.9825 5.67375 20.4112 3.915 20.4112ZM22.6688 18.8325H7.48125C7.70625 18.3412 7.83 17.7975 7.83 17.2237C7.83 15.0637 6.075 13.3087 3.915 13.3087C3.71625 13.3087 3.525 13.3275 3.3375 13.3575V6.57746C3.70875 6.90371 4.19625 7.10246 4.72875 7.10246H22.0312C22.0425 7.10246 22.05 7.10996 22.0613 7.10996H23.175C23.2275 7.10996 23.2725 7.15496 23.2725 7.20746V10.95H20.505C19.3163 10.95 18.3488 11.9175 18.3488 13.1062C18.3488 14.295 19.3163 15.2625 20.505 15.2625H23.2725V18.2362C23.2725 18.5625 23.0025 18.8325 22.6688 18.8325Z" stroke="black"/>
<path d="M23.175 6.37871H22.6462V3.22496C22.6462 3.02246 22.485 2.86121 22.2825 2.86121H4.725C3.55875 2.86121 2.60625 3.80996 2.60625 4.97996C2.60625 5.00996 2.61 5.03621 2.61 5.06621C2.61 5.06996 2.60625 5.07746 2.60625 5.08121V13.5337C1.09125 14.0737 0 15.5212 0 17.22C0 19.38 1.755 21.135 3.915 21.135C5.1975 21.135 6.33375 20.5125 7.05 19.5562H22.6688C23.4038 19.5562 24 18.96 24 18.225V7.20371C24 6.74996 23.6287 6.37871 23.175 6.37871ZM23.2725 14.5275H20.505C19.7175 14.5275 19.0762 13.8862 19.0762 13.0987C19.0762 12.3112 19.7175 11.67 20.505 11.67H23.2725V14.5275ZM4.725 3.58871H21.915V6.37121H4.725C3.95625 6.37121 3.33375 5.74871 3.33375 4.97996C3.33375 4.21496 3.96 3.58871 4.725 3.58871ZM3.915 20.4112C2.15625 20.4112 0.7275 18.9825 0.7275 17.2237C0.7275 15.465 2.15625 14.0362 3.915 14.0362C5.67375 14.0362 7.1025 15.465 7.1025 17.2237C7.1025 18.9825 5.67375 20.4112 3.915 20.4112ZM22.6688 18.8325H7.48125C7.70625 18.3412 7.83 17.7975 7.83 17.2237C7.83 15.0637 6.075 13.3087 3.915 13.3087C3.71625 13.3087 3.525 13.3275 3.3375 13.3575V6.57746C3.70875 6.90371 4.19625 7.10246 4.72875 7.10246H22.0312C22.0425 7.10246 22.05 7.10996 22.0613 7.10996H23.175C23.2275 7.10996 23.2725 7.15496 23.2725 7.20746V10.95H20.505C19.3163 10.95 18.3488 11.9175 18.3488 13.1062C18.3488 14.295 19.3163 15.2625 20.505 15.2625H23.2725V18.2362C23.2725 18.5625 23.0025 18.8325 22.6688 18.8325Z" stroke="black" stroke-opacity="0.2"/>
<path d="M23.175 6.37871H22.6462V3.22496C22.6462 3.02246 22.485 2.86121 22.2825 2.86121H4.725C3.55875 2.86121 2.60625 3.80996 2.60625 4.97996C2.60625 5.00996 2.61 5.03621 2.61 5.06621C2.61 5.06996 2.60625 5.07746 2.60625 5.08121V13.5337C1.09125 14.0737 0 15.5212 0 17.22C0 19.38 1.755 21.135 3.915 21.135C5.1975 21.135 6.33375 20.5125 7.05 19.5562H22.6688C23.4038 19.5562 24 18.96 24 18.225V7.20371C24 6.74996 23.6287 6.37871 23.175 6.37871ZM23.2725 14.5275H20.505C19.7175 14.5275 19.0762 13.8862 19.0762 13.0987C19.0762 12.3112 19.7175 11.67 20.505 11.67H23.2725V14.5275ZM4.725 3.58871H21.915V6.37121H4.725C3.95625 6.37121 3.33375 5.74871 3.33375 4.97996C3.33375 4.21496 3.96 3.58871 4.725 3.58871ZM3.915 20.4112C2.15625 20.4112 0.7275 18.9825 0.7275 17.2237C0.7275 15.465 2.15625 14.0362 3.915 14.0362C5.67375 14.0362 7.1025 15.465 7.1025 17.2237C7.1025 18.9825 5.67375 20.4112 3.915 20.4112ZM22.6688 18.8325H7.48125C7.70625 18.3412 7.83 17.7975 7.83 17.2237C7.83 15.0637 6.075 13.3087 3.915 13.3087C3.71625 13.3087 3.525 13.3275 3.3375 13.3575V6.57746C3.70875 6.90371 4.19625 7.10246 4.72875 7.10246H22.0312C22.0425 7.10246 22.05 7.10996 22.0613 7.10996H23.175C23.2275 7.10996 23.2725 7.15496 23.2725 7.20746V10.95H20.505C19.3163 10.95 18.3488 11.9175 18.3488 13.1062C18.3488 14.295 19.3163 15.2625 20.505 15.2625H23.2725V18.2362C23.2725 18.5625 23.0025 18.8325 22.6688 18.8325Z" stroke="black" stroke-opacity="0.2"/>
<path d="M13.0125 5.08494C13.0125 5.20693 13.0094 5.3282 13.0034 5.44869H12.7516C12.7456 5.3282 12.7425 5.20693 12.7425 5.08494C12.7425 4.96295 12.7456 4.84168 12.7516 4.72119L13.0034 4.72119C13.0095 4.84167 13.0125 4.96295 13.0125 5.08494ZM20.0768 12.9462C20.0698 12.9961 20.0663 13.047 20.0663 13.0987C20.0663 13.7099 20.5613 14.2049 21.1725 14.2049C21.7838 14.2049 22.2788 13.7099 22.2788 13.0987C22.2788 12.9237 22.2382 12.7583 22.1659 12.6112C21.9178 12.6865 21.6646 12.7498 21.4067 12.8005C21.4949 12.8697 21.5513 12.9773 21.5513 13.0987C21.5513 13.3087 21.3825 13.4774 21.1725 13.4774C20.9625 13.4774 20.7938 13.3087 20.7938 13.0987C20.7938 13.0214 20.818 12.9488 20.8592 12.8882C20.6021 12.9202 20.341 12.9397 20.0768 12.9462Z" fill="black" stroke="black" stroke-width="15"/>
</g>
<defs>
<clipPath id="clip0_907_509">
<rect width="24" height="24" fill="white"/>
</clipPath>
</defs>
</svg>
