<svg width="41" height="40" viewBox="0 0 41 40" fill="none" xmlns="http://www.w3.org/2000/svg">
<g id="Iconsax/Bulk/flashcircle">
<path id="Vector" opacity="0.4" d="M20.45 36.6673C29.6567 36.6673 37.1167 29.2057 37.1167 20.0007C37.1167 10.7957 29.6567 3.33398 20.45 3.33398C11.2467 3.33398 3.78333 10.7957 3.78333 20.0007C3.78333 29.2057 11.2467 36.6673 20.45 36.6673Z" fill="#0250C6"/>
<path id="Vector_2" d="M25.9167 18.8339H23.0833V12.2339C23.0833 10.7006 22.25 10.3839 21.2333 11.5339L20.5 12.3673L14.3 19.4173C13.45 20.3839 13.8 21.1673 15.0833 21.1673H17.9167V27.7673C17.9167 29.3006 18.75 29.6173 19.7667 28.4673L20.5 27.634L26.7 20.584C27.55 19.6173 27.2 18.8339 25.9167 18.8339Z" fill="#0250C6"/>
</g>
</svg>
