<svg width="23" height="24" viewBox="0 0 23 24" fill="none" xmlns="http://www.w3.org/2000/svg">
<path id="Greep" d="M12.6896 24C10.8515 24 9.15733 23.7127 7.60711 23.1381C6.07905 22.5414 4.73922 21.7017 3.58763 20.6188C2.45819 19.5359 1.57236 18.2652 0.930128 16.8066C0.310043 15.3481 0 13.7459 0 12C0 10.2541 0.310043 8.65193 0.930128 7.19337C1.57236 5.73481 2.46927 4.46409 3.62085 3.38122C4.77244 2.29834 6.12334 1.46961 7.67355 0.895026C9.22376 0.298342 10.929 0 12.7893 0C14.8488 0 16.698 0.342541 18.3368 1.02762C19.9977 1.71271 21.3929 2.70718 22.5224 4.01105L19.0676 7.19337C18.2261 6.30939 17.307 5.65746 16.3105 5.23757C15.3139 4.79558 14.2287 4.57459 13.055 4.57459C11.9256 4.57459 10.8958 4.75138 9.96565 5.10497C9.03552 5.45856 8.2272 5.96685 7.54068 6.62983C6.8763 7.29282 6.35587 8.07735 5.97939 8.98342C5.62506 9.8895 5.44789 10.895 5.44789 12C5.44789 13.0829 5.62506 14.0773 5.97939 14.9834C6.35587 15.8895 6.8763 16.6851 7.54068 17.3702C8.2272 18.0331 9.02445 18.5414 9.93243 18.895C10.8626 19.2486 11.8813 19.4254 12.9886 19.4254C14.0516 19.4254 15.0814 19.2597 16.0779 18.9282C17.0966 18.5746 18.0821 17.9889 19.0344 17.1713L22.0905 21.0497C20.8282 22 19.3555 22.7293 17.6724 23.2376C16.0115 23.7459 14.3505 24 12.6896 24ZM17.1741 20.3536V11.6354H22.0905V21.0497L17.1741 20.3536Z" fill="#10BB76"/>
</svg>
