<svg width="24" height="24" viewBox="0 0 24 24" fill="none" xmlns="http://www.w3.org/2000/svg">
<path d="M21.6888 18.6687L16.3888 13.3687H15.3988L12.8588 15.9087V16.8987L18.1588 22.1987C18.5488 22.5887 19.1788 22.5887 19.5688 22.1987L21.6888 20.0787C22.0788 19.6987 22.0788 19.0587 21.6888 18.6687ZM18.8588 20.0887L14.6188 15.8487L15.3288 15.1387L19.5688 19.3787L18.8588 20.0887Z" fill="#FF5656"/>
<path d="M17.3588 10.6887L18.7688 9.27875L20.8888 11.3987C22.0588 10.2287 22.0588 8.32875 20.8888 7.15875L17.3488 3.61875L15.9388 5.02875V2.20875L15.2388 1.49875L11.6988 5.03875L12.4088 5.74875H15.2388L13.8288 7.15875L14.8888 8.21875L11.9988 11.1087L7.8688 6.97875V5.55875L4.8488 2.53875L2.0188 5.36875L5.0488 8.39875H6.4588L10.5888 12.5287L9.7388 13.3787H7.6188L2.3188 18.6787C1.9288 19.0687 1.9288 19.6987 2.3188 20.0887L4.4388 22.2087C4.8288 22.5987 5.4588 22.5987 5.8488 22.2087L11.1488 16.9087V14.7887L16.2988 9.63875L17.3588 10.6887ZM9.3788 15.8387L5.1388 20.0787L4.4288 19.3687L8.6688 15.1287L9.3788 15.8387Z" fill="#FF5656"/>
</svg>
