<svg width="24" height="24" viewBox="0 0 24 24" fill="none" xmlns="http://www.w3.org/2000/svg">
<g id="Iconsax/Outline/headphone">
<path id="Vector" d="M5.57 22.6999C3.23 22.6999 1.25 20.7199 1.25 18.3799V12.2199C1.2 9.29992 2.28 6.54992 4.3 4.48992C5.29719 3.47388 6.48797 2.66809 7.80194 2.12018C9.1159 1.57226 10.5264 1.29335 11.95 1.29992C17.91 1.29992 22.75 6.14992 22.75 12.0999V18.2599C22.75 20.6399 20.81 22.5799 18.43 22.5799C16.09 22.5799 14.11 20.5999 14.11 18.2599V15.4499C14.11 13.9999 15.25 12.8599 16.7 12.8599C18.15 12.8599 19.29 13.9999 19.29 15.4499V18.4799C19.29 18.8899 18.95 19.2299 18.54 19.2299C18.13 19.2299 17.79 18.8899 17.79 18.4799V15.4499C17.79 14.7699 17.24 14.3599 16.7 14.3599C16.02 14.3599 15.61 14.9099 15.61 15.4499V18.2599C15.61 19.7899 16.9 21.0799 18.43 21.0799C19.96 21.0799 21.25 19.7899 21.25 18.2599V12.0999C21.25 6.96992 17.08 2.79992 11.95 2.79992C9.44 2.79992 7.11 3.76992 5.37 5.53992C3.63 7.30992 2.7 9.67992 2.75 12.1999V18.3799C2.75 19.9099 4.04 21.1999 5.57 21.1999C7.1 21.1999 8.39 19.9099 8.39 18.3799V15.5699C8.39 14.8899 7.84 14.4799 7.3 14.4799C6.62 14.4799 6.21 15.0299 6.21 15.5699V18.4899C6.21 18.8999 5.87 19.2399 5.46 19.2399C5.05 19.2399 4.71 18.8999 4.71 18.4899V15.5699C4.71 14.1199 5.85 12.9799 7.3 12.9799C8.75 12.9799 9.89 14.1199 9.89 15.5699V18.3799C9.89 20.7199 7.91 22.6999 5.57 22.6999Z" fill="#001726"/>
</g>
</svg>
