<svg width="25" height="24" viewBox="0 0 25 24" fill="none" xmlns="http://www.w3.org/2000/svg">
<g id="Iconsax/Outline/clock">
<path id="Vector" d="M12.125 22.75C6.195 22.75 1.375 17.93 1.375 12C1.375 6.07 6.195 1.25 12.125 1.25C18.055 1.25 22.875 6.07 22.875 12C22.875 17.93 18.055 22.75 12.125 22.75ZM12.125 2.75C7.025 2.75 2.875 6.9 2.875 12C2.875 17.1 7.025 21.25 12.125 21.25C17.225 21.25 21.375 17.1 21.375 12C21.375 6.9 17.225 2.75 12.125 2.75Z" fill="#999999"/>
<path id="Vector_2" d="M15.835 15.9317C15.7002 15.9341 15.5677 15.8958 15.455 15.8217L12.355 13.9717C11.585 13.5117 11.015 12.5017 11.015 11.6117V7.51172C11.015 7.10172 11.355 6.76172 11.765 6.76172C12.175 6.76172 12.515 7.10172 12.515 7.51172V11.6117C12.515 11.9717 12.815 12.5017 13.125 12.6817L16.225 14.5317C16.585 14.7417 16.695 15.2017 16.485 15.5617C16.417 15.6735 16.3217 15.7662 16.208 15.8309C16.0942 15.8957 15.9659 15.9304 15.835 15.9317Z" fill="#999999"/>
</g>
</svg>
