<svg width="25" height="24" viewBox="0 0 25 24" fill="none" xmlns="http://www.w3.org/2000/svg">
<g id="Iconsax/Outline/home2">
<path id="Vector" d="M18.665 22.75H7.085C4.345 22.75 2.125 20.52 2.125 17.78V10.37C2.125 9.00997 2.965 7.29997 4.045 6.45997L9.435 2.25997C11.055 0.999974 13.645 0.939974 15.325 2.11997L21.505 6.44997C22.695 7.27997 23.625 9.05997 23.625 10.51V17.79C23.625 20.52 21.405 22.75 18.665 22.75ZM10.355 3.43997L4.965 7.63997C4.255 8.19997 3.625 9.46997 3.625 10.37V17.78C3.625 18.6985 3.98921 19.5796 4.6378 20.2301C5.28639 20.8806 6.16643 21.2473 7.085 21.25H18.665C20.575 21.25 22.125 19.7 22.125 17.79V10.51C22.125 9.54997 21.435 8.21997 20.645 7.67997L14.465 3.34997C13.325 2.54997 11.445 2.58997 10.355 3.43997Z" fill="#001726"/>
<path id="Vector_2" d="M12.875 18.75C12.465 18.75 12.125 18.41 12.125 18V15C12.125 14.59 12.465 14.25 12.875 14.25C13.285 14.25 13.625 14.59 13.625 15V18C13.625 18.41 13.285 18.75 12.875 18.75Z" fill="#001726"/>
</g>
</svg>
