<svg width="24" height="32" viewBox="0 0 24 32" fill="none" xmlns="http://www.w3.org/2000/svg">
<path d="M12 6.19L17 10.69V18.5H15V12.5H9V18.5H7V10.69L12 6.19ZM12 3.5L2 12.5H5V20.5H11V14.5H13V20.5H19V12.5H22L12 3.5Z" fill="#001726"/>
<path d="M0 29C0 28.4477 0.447715 28 1 28H23C23.5523 28 24 28.4477 24 29V31C24 31.5523 23.5523 32 23 32H1C0.447716 32 0 31.5523 0 31V29Z" fill="#001726"/>
<path d="M0 29C0 28.4477 0.447715 28 1 28H23C23.5523 28 24 28.4477 24 29V31C24 31.5523 23.5523 32 23 32H1C0.447716 32 0 31.5523 0 31V29Z" fill="#001726"/>
</svg>
