<svg width="24" height="24" viewBox="0 0 24 24" fill="none" xmlns="http://www.w3.org/2000/svg">
<g id="Iconsax/Outline/cup">
<path id="Vector" d="M12.15 19.35C11.74 19.35 11.4 19.01 11.4 18.6V16.5C11.4 16.09 11.74 15.75 12.15 15.75C12.56 15.75 12.9 16.09 12.9 16.5V18.6C12.9 19.01 12.56 19.35 12.15 19.35Z" fill="#001726"/>
<path id="Vector_2" d="M17.9 22.75H6.39999V21C6.39999 19.48 7.62999 18.25 9.14999 18.25H15.15C16.67 18.25 17.9 19.48 17.9 21V22.75ZM7.89999 21.25H16.4V21C16.4 20.31 15.84 19.75 15.15 19.75H9.14999C8.45999 19.75 7.89999 20.31 7.89999 21V21.25Z" fill="#001726"/>
<path id="Vector_3" d="M18.15 22.7496H6.14999C5.73999 22.7496 5.39999 22.4096 5.39999 21.9996C5.39999 21.5896 5.73999 21.2496 6.14999 21.2496H18.15C18.56 21.2496 18.9 21.5896 18.9 21.9996C18.9 22.4096 18.56 22.7496 18.15 22.7496ZM18.43 12.4386C18.22 12.4386 18.01 12.3486 17.86 12.1786C17.7665 12.0722 17.7055 11.9412 17.6842 11.8012C17.6629 11.6611 17.6823 11.5179 17.74 11.3886C18.08 10.6086 18.25 9.77859 18.25 8.90859V5.90859C18.25 5.55859 18.19 5.21859 18.07 4.85859C18.0587 4.82229 18.0487 4.7856 18.04 4.74859C18.01 4.59859 18 4.44859 18 4.30859C18 3.89859 18.34 3.55859 18.75 3.55859H19.35C21.14 3.55859 22.6 5.05859 22.6 6.90859C22.6 8.43859 21.97 9.94859 20.88 11.0386C20.86 11.0586 20.8 11.1086 20.79 11.1186C20.2 11.6086 19.53 12.1586 18.63 12.4086C18.56 12.4286 18.5 12.4386 18.43 12.4386ZM19.68 5.08859C19.73 5.35859 19.75 5.63859 19.75 5.90859V8.90859C19.75 9.31859 19.72 9.70859 19.66 10.1086L19.83 9.96859C20.63 9.16859 21.1 8.04859 21.1 6.90859C21.1 6.00859 20.49 5.24859 19.68 5.08859ZM5.57999 12.4016C5.50149 12.4029 5.42344 12.3894 5.34999 12.3616C4.52999 12.1016 3.75999 11.6216 3.11999 10.9816C1.96999 9.71159 1.39999 8.32159 1.39999 6.85159C1.39999 5.03159 2.82999 3.60159 4.64999 3.60159H5.29999C5.54999 3.60159 5.78999 3.73159 5.92999 3.94159C6.06999 4.15159 6.08999 4.42159 5.98999 4.65159C5.82999 5.01159 5.74999 5.42159 5.74999 5.85159V8.85159C5.74999 9.71159 5.91999 10.5516 6.26999 11.3516C6.38999 11.6216 6.32999 11.9316 6.13999 12.1516C5.98999 12.3116 5.78999 12.4016 5.57999 12.4016ZM4.29999 5.13159C3.48999 5.29159 2.89999 5.99159 2.89999 6.85159C2.89999 7.94159 3.33999 8.99159 4.20999 9.95159C4.24999 10.0016 4.29999 10.0416 4.34999 10.0816C4.27999 9.67159 4.24999 9.26159 4.24999 8.85159V5.85159C4.24999 5.61159 4.26999 5.37159 4.29999 5.13159Z" fill="#001726"/>
<path id="Vector_4" d="M12 16.75C7.73 16.75 4.25 13.27 4.25 9V6C4.25 3.38 6.38 1.25 9 1.25H15C17.62 1.25 19.75 3.38 19.75 6V9C19.75 13.27 16.27 16.75 12 16.75ZM9 2.75C7.21 2.75 5.75 4.21 5.75 6V9C5.75 12.45 8.55 15.25 12 15.25C15.45 15.25 18.25 12.45 18.25 9V6C18.25 4.21 16.79 2.75 15 2.75H9Z" fill="#001726"/>
</g>
</svg>
