<svg width="16" height="22" viewBox="0 0 16 22" fill="none" xmlns="http://www.w3.org/2000/svg">
<path d="M8 2.15918C10.2 2.15918 12 3.95918 12 6.15918C12 8.25918 9.9 11.6592 8 14.0592C6.1 11.5592 4 8.25918 4 6.15918C4 3.95918 5.8 2.15918 8 2.15918ZM8 0.15918C4.7 0.15918 2 2.85918 2 6.15918C2 10.6592 8 17.1592 8 17.1592C8 17.1592 14 10.5592 14 6.15918C14 2.85918 11.3 0.15918 8 0.15918ZM8 4.15918C6.9 4.15918 6 5.05918 6 6.15918C6 7.25918 6.9 8.15918 8 8.15918C9.1 8.15918 10 7.25918 10 6.15918C10 5.05918 9.1 4.15918 8 4.15918ZM16 17.1592C16 19.3592 12.4 21.1592 8 21.1592C3.6 21.1592 0 19.3592 0 17.1592C0 15.8592 1.2 14.7592 3.1 13.9592L3.7 14.8592C2.7 15.3592 2 15.9592 2 16.6592C2 18.0592 4.7 19.1592 8 19.1592C11.3 19.1592 14 18.0592 14 16.6592C14 15.9592 13.3 15.3592 12.2 14.8592L12.8 13.9592C14.8 14.7592 16 15.8592 16 17.1592Z" fill="black"/>
</svg>
