<svg width="25" height="24" viewBox="0 0 25 24" fill="none" xmlns="http://www.w3.org/2000/svg">
<g id="Iconsax/Outline/messagetext">
<path id="Vector" d="M12.375 22.81C11.685 22.81 11.035 22.46 10.575 21.85L9.075 19.85C9.01731 19.8011 8.94871 19.7668 8.875 19.75H8.375C4.205 19.75 1.625 18.62 1.625 13V8C1.625 3.58 3.955 1.25 8.375 1.25H16.375C20.795 1.25 23.125 3.58 23.125 8V13C23.125 17.42 20.795 19.75 16.375 19.75H15.875C15.795 19.75 15.725 19.79 15.675 19.85L14.175 21.85C13.715 22.46 13.065 22.81 12.375 22.81ZM8.375 2.75C4.795 2.75 3.125 4.42 3.125 8V13C3.125 17.52 4.675 18.25 8.375 18.25H8.875C9.385 18.25 9.965 18.54 10.275 18.95L11.775 20.95C12.125 21.41 12.625 21.41 12.975 20.95L14.475 18.95C14.805 18.51 15.325 18.25 15.875 18.25H16.375C19.955 18.25 21.625 16.58 21.625 13V8C21.625 4.42 19.955 2.75 16.375 2.75H8.375Z" fill="#999999"/>
<path id="Vector_2" d="M17.375 8.75H7.375C6.965 8.75 6.625 8.41 6.625 8C6.625 7.59 6.965 7.25 7.375 7.25H17.375C17.785 7.25 18.125 7.59 18.125 8C18.125 8.41 17.785 8.75 17.375 8.75ZM13.375 13.75H7.375C6.965 13.75 6.625 13.41 6.625 13C6.625 12.59 6.965 12.25 7.375 12.25H13.375C13.785 12.25 14.125 12.59 14.125 13C14.125 13.41 13.785 13.75 13.375 13.75Z" fill="#999999"/>
</g>
</svg>
