<svg width="24" height="24" viewBox="0 0 24 24" fill="none" xmlns="http://www.w3.org/2000/svg">
<g id="Iconsax/Bulk/money3">
<path id="Vector" opacity="0.4" d="M17 20.5H7C4 20.5 2 19 2 15.5V8.5C2 5 4 3.5 7 3.5H17C20 3.5 22 5 22 8.5V15.5C22 19 20 20.5 17 20.5Z" fill="#009696"/>
<path id="Vector_2" d="M12 15C12.7956 15 13.5587 14.6839 14.1213 14.1213C14.6839 13.5587 15 12.7956 15 12C15 11.2044 14.6839 10.4413 14.1213 9.87868C13.5587 9.31607 12.7956 9 12 9C11.2044 9 10.4413 9.31607 9.87868 9.87868C9.31607 10.4413 9 11.2044 9 12C9 12.7956 9.31607 13.5587 9.87868 14.1213C10.4413 14.6839 11.2044 15 12 15ZM19 7.75H16C15.59 7.75 15.25 7.41 15.25 7C15.25 6.59 15.59 6.25 16 6.25H19C19.41 6.25 19.75 6.59 19.75 7C19.75 7.41 19.41 7.75 19 7.75ZM8 17.75H5C4.59 17.75 4.25 17.41 4.25 17C4.25 16.59 4.59 16.25 5 16.25H8C8.41 16.25 8.75 16.59 8.75 17C8.75 17.41 8.41 17.75 8 17.75Z" fill="#009696"/>
</g>
</svg>
