<svg width="24" height="25" viewBox="0 0 24 25" fill="none" xmlns="http://www.w3.org/2000/svg">
<g id="vuesax/linear/more">
<g id="more">
<path id="Vector" d="M10.5 19C10.5 20.1 11.4 21 12.5 21C13.6 21 14.5 20.1 14.5 19C14.5 17.9 13.6 17 12.5 17C11.4 17 10.5 17.9 10.5 19Z" stroke="white" stroke-width="1.5"/>
<path id="Vector_2" d="M10 5.5C10 6.6 10.9 7.5 12 7.5C13.1 7.5 14 6.6 14 5.5C14 4.4 13.1 3.5 12 3.5C10.9 3.5 10 4.4 10 5.5Z" stroke="white" stroke-width="1.5"/>
<path id="Vector_3" d="M10 12.5C10 13.6 10.9 14.5 12 14.5C13.1 14.5 14 13.6 14 12.5C14 11.4 13.1 10.5 12 10.5C10.9 10.5 10 11.4 10 12.5Z" stroke="white" stroke-width="1.5"/>
</g>
</g>
</svg>
