<svg width="24" height="24" viewBox="0 0 24 24" fill="none" xmlns="http://www.w3.org/2000/svg">
<g id="Iconsax/Outline/notification">
<path id="Vector" d="M12.02 20.5319C9.68999 20.5319 7.35999 20.1619 5.14999 19.4219C4.30999 19.1319 3.66999 18.5419 3.38999 17.7719C3.09999 17.0019 3.19999 16.1519 3.65999 15.3919L4.80999 13.4819C5.04999 13.0819 5.26999 12.2819 5.26999 11.8119V8.92188C5.26999 5.20187 8.29999 2.17188 12.02 2.17188C15.74 2.17188 18.77 5.20187 18.77 8.92188V11.8119C18.77 12.2719 18.99 13.0819 19.23 13.4919L20.37 15.3919C20.8 16.1119 20.88 16.9819 20.59 17.7719C20.4484 18.1584 20.2209 18.5077 19.9247 18.7935C19.6285 19.0793 19.2713 19.2942 18.88 19.4219C16.68 20.1619 14.35 20.5319 12.02 20.5319ZM12.02 3.67188C9.12999 3.67188 6.76999 6.02187 6.76999 8.92188V11.8119C6.76999 12.5419 6.46999 13.6219 6.09999 14.2519L4.94999 16.1619C4.72999 16.5319 4.66999 16.9219 4.79999 17.2519C4.91999 17.5919 5.21999 17.8519 5.62999 17.9919C9.7784 19.3918 14.2716 19.3918 18.42 17.9919C18.78 17.8719 19.06 17.6019 19.19 17.2419C19.32 16.8819 19.29 16.4919 19.09 16.1619L17.94 14.2519C17.56 13.6019 17.27 12.5319 17.27 11.8019V8.92188C17.27 6.02187 14.92 3.67188 12.02 3.67188Z" fill="#001726"/>
<path id="Vector_2" d="M13.88 3.93971C13.81 3.93971 13.74 3.92971 13.67 3.90971C13.38 3.82971 13.1 3.76971 12.83 3.72971C11.98 3.61971 11.16 3.67971 10.39 3.90971C10.11 3.99971 9.80999 3.90971 9.61999 3.69971C9.52532 3.59622 9.46192 3.46801 9.43714 3.32996C9.41236 3.19191 9.42722 3.04966 9.47999 2.91971C9.67909 2.40574 10.0294 1.96427 10.4847 1.6536C10.94 1.34294 11.4788 1.1777 12.03 1.17971C13.17 1.17971 14.17 1.85971 14.58 2.91971C14.68 3.18971 14.63 3.48971 14.44 3.69971C14.29 3.85971 14.08 3.93971 13.88 3.93971ZM12.02 22.8087C11.03 22.8087 10.07 22.4087 9.36999 21.7087C8.66999 21.0087 8.26999 20.0487 8.26999 19.0587H9.76999C9.76999 19.6487 10.01 20.2287 10.43 20.6487C10.85 21.0687 11.43 21.3087 12.02 21.3087C13.26 21.3087 14.27 20.2987 14.27 19.0587H15.77C15.77 21.1287 14.09 22.8087 12.02 22.8087Z" fill="#001726"/>
</g>
</svg>
