<svg width="25" height="24" viewBox="0 0 25 24" fill="none" xmlns="http://www.w3.org/2000/svg">
<g id="Iconsax/Outline/profile2user">
<path id="Vector" d="M9.78401 11.62H9.70401C9.64442 11.61 9.58359 11.61 9.524 11.62C6.624 11.53 4.43401 9.25 4.43401 6.44C4.43401 3.58 6.764 1.25 9.624 1.25C12.484 1.25 14.814 3.58 14.814 6.44C14.804 9.25 12.604 11.53 9.814 11.62H9.78401ZM9.624 2.75C8.64617 2.75264 7.70913 3.14225 7.0177 3.83369C6.32626 4.52513 5.93664 5.46216 5.93401 6.44C5.93401 8.44 7.49401 10.05 9.484 10.12C9.544 10.11 9.674 10.11 9.804 10.12C11.764 10.03 13.304 8.42 13.314 6.44C13.3114 5.46216 12.9218 4.52513 12.2303 3.83369C11.5389 3.14225 10.6018 2.75264 9.624 2.75ZM17.163 11.75C17.133 11.75 17.103 11.75 17.073 11.74C16.663 11.78 16.243 11.49 16.203 11.08C16.163 10.67 16.413 10.3 16.823 10.25C16.943 10.24 17.073 10.24 17.183 10.24C18.643 10.16 19.783 8.96 19.783 7.49C19.783 5.97 18.553 4.74 17.033 4.74C16.935 4.74132 16.8377 4.72316 16.7467 4.68657C16.6558 4.64997 16.573 4.59567 16.5033 4.52683C16.4335 4.45798 16.3781 4.37595 16.3403 4.28551C16.3025 4.19508 16.283 4.09803 16.283 4C16.283 3.59 16.623 3.25 17.033 3.25C18.1594 3.25264 19.2388 3.70126 20.0353 4.49771C20.8317 5.29417 21.2804 6.37364 21.283 7.5C21.283 9.8 19.483 11.66 17.193 11.75H17.163ZM9.797 22.55C7.837 22.55 5.86701 22.05 4.37701 21.05C2.98701 20.13 2.22701 18.87 2.22701 17.5C2.22701 16.13 2.98701 14.86 4.37701 13.93C7.37701 11.94 12.237 11.94 15.217 13.93C16.597 14.85 17.367 16.11 17.367 17.48C17.367 18.85 16.607 20.12 15.217 21.05C13.717 22.05 11.757 22.55 9.797 22.55ZM5.207 15.19C4.247 15.83 3.72701 16.65 3.72701 17.51C3.72701 18.36 4.257 19.18 5.207 19.81C7.697 21.48 11.897 21.48 14.387 19.81C15.347 19.17 15.867 18.35 15.867 17.49C15.867 16.64 15.337 15.82 14.387 15.19C11.897 13.53 7.697 13.53 5.207 15.19ZM18.963 20.75C18.613 20.75 18.303 20.51 18.233 20.15C18.1943 19.9553 18.2333 19.7532 18.3417 19.5868C18.4501 19.4205 18.6192 19.3032 18.813 19.26C19.443 19.13 20.023 18.88 20.473 18.53C21.043 18.1 21.353 17.56 21.353 16.99C21.353 16.42 21.043 15.88 20.483 15.46C20.043 15.12 19.493 14.88 18.843 14.73C18.6484 14.6856 18.4793 14.5661 18.3726 14.3975C18.2658 14.2289 18.23 14.0249 18.273 13.83C18.363 13.43 18.763 13.17 19.173 13.26C20.033 13.45 20.783 13.79 21.393 14.26C22.323 14.96 22.853 15.95 22.853 16.99C22.853 18.03 22.313 19.02 21.383 19.73C20.763 20.21 19.983 20.56 19.123 20.73C19.063 20.75 19.013 20.75 18.963 20.75Z" fill="#999999"/>
</g>
</svg>
