<svg width="16" height="20" viewBox="0 0 16 20" fill="none" xmlns="http://www.w3.org/2000/svg">
<path d="M8 14.9999C8.28333 14.9999 8.521 14.9039 8.713 14.7119C8.90433 14.5206 9 14.2832 9 13.9999V9.9999C9 9.71657 8.90433 9.4789 8.713 9.2869C8.521 9.09557 8.28333 8.9999 8 8.9999C7.71667 8.9999 7.47933 9.09557 7.288 9.2869C7.096 9.4789 7 9.71657 7 9.9999V13.9999C7 14.2832 7.096 14.5206 7.288 14.7119C7.47933 14.9039 7.71667 14.9999 8 14.9999ZM8 6.9999C8.28333 6.9999 8.521 6.9039 8.713 6.7119C8.90433 6.52057 9 6.28324 9 5.9999C9 5.71657 8.90433 5.4789 8.713 5.2869C8.521 5.09557 8.28333 4.9999 8 4.9999C7.71667 4.9999 7.47933 5.09557 7.288 5.2869C7.096 5.4789 7 5.71657 7 5.9999C7 6.28324 7.096 6.52057 7.288 6.7119C7.47933 6.9039 7.71667 6.9999 8 6.9999ZM8 19.9249H7.75C7.66667 19.9249 7.59167 19.9082 7.525 19.8749C5.34167 19.1916 3.54167 17.8372 2.125 15.8119C0.708333 13.7872 0 11.5499 0 9.0999V4.3749C0 3.95824 0.121 3.58324 0.363 3.2499C0.604333 2.91657 0.916667 2.6749 1.3 2.5249L7.3 0.274902C7.53333 0.191569 7.76667 0.149902 8 0.149902C8.23333 0.149902 8.46667 0.191569 8.7 0.274902L14.7 2.5249C15.0833 2.6749 15.396 2.91657 15.638 3.2499C15.8793 3.58324 16 3.95824 16 4.3749V9.0999C16 11.5499 15.2917 13.7872 13.875 15.8119C12.4583 17.8372 10.6583 19.1916 8.475 19.8749C8.39167 19.9082 8.23333 19.9249 8 19.9249ZM8 17.8999C9.73333 17.3499 11.1667 16.2499 12.3 14.5999C13.4333 12.9499 14 11.1166 14 9.0999V4.3749L8 2.1249L2 4.3749V9.0999C2 11.1166 2.56667 12.9499 3.7 14.5999C4.83333 16.2499 6.26667 17.3499 8 17.8999Z" fill="#001726"/>
</svg>
