<svg width="24" height="24" viewBox="0 0 24 24" fill="none" xmlns="http://www.w3.org/2000/svg">
<g id="Iconsax/Outline/arrangevertical">
<path id="Vector" d="M10.4499 7.47032C10.2599 7.47032 10.0699 7.40032 9.91991 7.25032L6.72991 4.06032L3.53991 7.25032C3.24991 7.54032 2.76991 7.54032 2.47991 7.25032C2.34043 7.10918 2.26221 6.91875 2.26221 6.72032C2.26221 6.52189 2.34043 6.33145 2.47991 6.19032L6.19991 2.47032C6.34053 2.32987 6.53116 2.25098 6.72991 2.25098C6.92866 2.25098 7.11928 2.32987 7.25991 2.47032L10.9799 6.19032C11.2699 6.48032 11.2699 6.96032 10.9799 7.25032C10.8299 7.40032 10.6399 7.47032 10.4499 7.47032Z" fill="#999999"/>
<path id="Vector_2" d="M6.72998 21.75C6.31998 21.75 5.97998 21.41 5.97998 21V3C5.97998 2.59 6.31998 2.25 6.72998 2.25C7.13998 2.25 7.47998 2.59 7.47998 3V21C7.47998 21.41 7.13998 21.75 6.72998 21.75ZM17.28 21.75C17.0811 21.7498 16.8905 21.6707 16.75 21.53L13.03 17.81C12.8905 17.6689 12.8123 17.4784 12.8123 17.28C12.8123 17.0816 12.8905 16.8911 13.03 16.75C13.32 16.46 13.8 16.46 14.09 16.75L17.28 19.94L20.47 16.75C20.76 16.46 21.24 16.46 21.53 16.75C21.82 17.04 21.82 17.52 21.53 17.81L17.81 21.53C17.67 21.67 17.47 21.75 17.28 21.75Z" fill="#999999"/>
<path id="Vector_3" d="M17.27 21.75C16.86 21.75 16.52 21.41 16.52 21V3C16.52 2.59 16.86 2.25 17.27 2.25C17.68 2.25 18.02 2.59 18.02 3V21C18.02 21.41 17.69 21.75 17.27 21.75Z" fill="#999999"/>
</g>
</svg>
