<svg width="24" height="24" viewBox="0 0 24 24" fill="none" xmlns="http://www.w3.org/2000/svg">
<g id="vuesax/outline/shield-tick">
<g id="shield-tick">
<path id="Vector" d="M12 22.7604C10.91 22.7604 9.83 22.4404 8.98 21.8104L4.68 18.6004C3.54 17.7504 2.65 15.9704 2.65 14.5604V7.12043C2.65 5.58043 3.78 3.94043 5.23 3.40043L10.22 1.53043C11.21 1.16043 12.77 1.16043 13.76 1.53043L18.75 3.40043C20.2 3.94043 21.33 5.58043 21.33 7.12043V14.5504C21.33 15.9704 20.44 17.7404 19.3 18.5904L15 21.8004C14.17 22.4404 13.09 22.7604 12 22.7604ZM10.75 2.94043L5.76 4.81043C4.91 5.13043 4.16 6.21043 4.16 7.13043V14.5604C4.16 15.5104 4.83 16.8404 5.58 17.4004L9.88 20.6104C11.03 21.4704 12.97 21.4704 14.13 20.6104L18.43 17.4004C19.19 16.8304 19.85 15.5104 19.85 14.5604V7.12043C19.85 6.21043 19.1 5.13043 18.25 4.80043L13.26 2.93043C12.58 2.69043 11.42 2.69043 10.75 2.94043Z" fill="#001726"/>
<path id="Vector_2" d="M10.66 14.2301C10.47 14.2301 10.28 14.1601 10.13 14.0101L8.52 12.4001C8.23 12.1101 8.23 11.6301 8.52 11.3401C8.81 11.0501 9.29 11.0501 9.58 11.3401L10.66 12.4201L14.43 8.65012C14.72 8.36012 15.2 8.36012 15.49 8.65012C15.78 8.94012 15.78 9.42012 15.49 9.71012L11.19 14.0101C11.04 14.1601 10.85 14.2301 10.66 14.2301Z" fill="#001726"/>
</g>
</g>
</svg>
