<svg width="20" height="21" viewBox="0 0 20 21" fill="none" xmlns="http://www.w3.org/2000/svg">
<g id="Iconsax/Bulk/star1">
<path id="Vector" opacity="0.4" d="M4.78333 13.8337C4.875 13.4253 4.70833 12.842 4.41667 12.5503L2.39167 10.5253C1.75833 9.89199 1.50833 9.21699 1.69167 8.63366C1.88333 8.05033 2.475 7.65033 3.35833 7.50033L5.95833 7.06699C6.33333 7.00033 6.79167 6.66699 6.96667 6.32533L8.4 3.45033C8.81667 2.62533 9.38333 2.16699 10 2.16699C10.6167 2.16699 11.1833 2.62533 11.6 3.45033L13.0333 6.32533C13.1417 6.54199 13.3667 6.75033 13.6083 6.89199L4.63333 15.867C4.51667 15.9837 4.31667 15.8753 4.35 15.7087L4.78333 13.8337Z" fill="#FFB841"/>
<path id="Vector_2" d="M15.5833 12.5515C15.2833 12.8515 15.1167 13.4265 15.2167 13.8349L15.7917 16.3432C16.0333 17.3849 15.8833 18.1682 15.3667 18.5432C15.1472 18.6966 14.8843 18.7755 14.6167 18.7682C14.1917 18.7682 13.6917 18.6099 13.1417 18.2849L10.7 16.8349C10.3167 16.6099 9.68333 16.6099 9.3 16.8349L6.85833 18.2849C5.93333 18.8265 5.14167 18.9182 4.63333 18.5432C4.44167 18.4015 4.3 18.2099 4.20833 17.9599L14.3417 7.82654C14.725 7.44321 15.2667 7.26821 15.7917 7.35988L16.6333 7.50154C17.5167 7.65154 18.1083 8.05154 18.3 8.63488C18.4833 9.21821 18.2333 9.89321 17.6 10.5265L15.5833 12.5515Z" fill="#FFB841"/>
</g>
</svg>
