<svg width="9" height="9" viewBox="0 0 9 9" fill="none" xmlns="http://www.w3.org/2000/svg">
<path d="M7.99636 3.99804C7.99636 6.20609 6.20632 7.99608 3.99818 7.99608C1.79005 7.99608 0 6.20609 0 3.99804C0 1.78998 1.79005 0 3.99818 0C6.20632 0 7.99636 1.78998 7.99636 3.99804Z" fill="#FF5656"/>
<path d="M8.59813 5.20718C8.75539 5.23531 8.87834 5.35866 8.90594 5.51602C8.95162 5.77641 8.72439 6.0029 8.46415 5.95636L6.82321 5.6629C6.13793 5.54035 5.54023 6.13806 5.66279 6.82334L5.95624 8.46413C6.00278 8.72438 5.7763 8.95163 5.51589 8.90595C5.35853 8.87835 5.23517 8.75539 5.20704 8.59812L4.72124 5.88183C4.59869 5.19654 5.19638 4.59884 5.88166 4.72139L8.59813 5.20718Z" fill="white"/>
</svg>
