<svg width="24" height="24" viewBox="0 0 24 24" fill="none" xmlns="http://www.w3.org/2000/svg">
<g id="Iconsax/Outline/trash">
<path id="Vector" d="M21 6.73046H20.92C15.63 6.20046 10.35 6.00046 5.12001 6.53046L3.08001 6.73046C2.98077 6.74082 2.88047 6.7314 2.78489 6.70275C2.68932 6.6741 2.60037 6.6268 2.52319 6.56356C2.44601 6.50033 2.38213 6.42243 2.33524 6.33436C2.28835 6.24629 2.25938 6.1498 2.25001 6.05046C2.21001 5.63046 2.51001 5.27046 2.92001 5.23046L4.96001 5.03046C10.28 4.49046 15.67 4.70046 21.07 5.23046C21.48 5.27046 21.78 5.64046 21.74 6.05046C21.7249 6.23615 21.6403 6.4093 21.5031 6.53535C21.366 6.6614 21.1863 6.73108 21 6.73046Z" fill="#FF5656"/>
<path id="Vector_2" d="M8.49999 5.72C8.45999 5.72 8.41999 5.72 8.36999 5.71C8.17597 5.67504 8.00341 5.56538 7.88935 5.40458C7.7753 5.24378 7.72885 5.04467 7.75999 4.85L7.97999 3.54C8.13999 2.58 8.35999 1.25 10.69 1.25H13.31C15.65 1.25 15.87 2.63 16.02 3.55L16.24 4.85C16.31 5.26 16.03 5.65 15.63 5.71C15.22 5.78 14.83 5.5 14.77 5.1L14.55 3.8C14.41 2.93 14.38 2.76 13.32 2.76H10.7C9.63999 2.76 9.61999 2.9 9.46999 3.79L9.23999 5.09C9.2115 5.26576 9.12141 5.42565 8.98584 5.54107C8.85026 5.6565 8.67804 5.71992 8.49999 5.72ZM15.21 22.752H8.78999C5.29999 22.752 5.15999 20.822 5.04999 19.262L4.39999 9.192C4.36999 8.782 4.68999 8.422 5.09999 8.392C5.51999 8.372 5.86999 8.682 5.89999 9.092L6.54999 19.162C6.65999 20.682 6.69999 21.252 8.78999 21.252H15.21C17.31 21.252 17.35 20.682 17.45 19.162L18.1 9.092C18.13 8.682 18.49 8.372 18.9 8.392C19.31 8.422 19.63 8.772 19.6 9.192L18.95 19.262C18.84 20.822 18.7 22.752 15.21 22.752Z" fill="#FF5656"/>
<path id="Vector_3" d="M13.66 17.25H10.33C9.92 17.25 9.58 16.91 9.58 16.5C9.58 16.09 9.92 15.75 10.33 15.75H13.66C14.07 15.75 14.41 16.09 14.41 16.5C14.41 16.91 14.07 17.25 13.66 17.25ZM14.5 13.25H9.5C9.09 13.25 8.75 12.91 8.75 12.5C8.75 12.09 9.09 11.75 9.5 11.75H14.5C14.91 11.75 15.25 12.09 15.25 12.5C15.25 12.91 14.91 13.25 14.5 13.25Z" fill="#FF5656"/>
</g>
</svg>
