<svg width="13" height="14" viewBox="0 0 13 14" fill="none" xmlns="http://www.w3.org/2000/svg">
<path d="M5.52481 0.0100309C5.40122 0.00959336 5.27725 0.00971836 5.15294 0.0102496C4.55459 0.0130309 3.94669 0.0287496 3.33359 0.0514996L3.51097 0.829406C4.14944 0.757218 4.84941 0.703468 5.54931 0.676593C5.9285 0.662031 6.30538 0.654343 6.67094 0.656281C7.76766 0.662 8.76272 0.754093 9.41375 1.00634L9.69213 1.11428L9.56785 1.38569C8.65969 3.36959 8.44966 5.28356 8.59197 7.1615C8.66222 4.93281 9.58863 2.95056 10.8048 0.409375C9.14991 0.134375 7.37872 0.016187 5.52481 0.00999951V0.0100309ZM6.40088 1.22222C6.12775 1.22244 5.84931 1.22797 5.57091 1.23866C4.26866 1.28866 2.97094 1.44147 2.12516 1.61666C3.06994 3.36912 3.83422 5.12563 4.32775 6.83797C4.38914 6.83592 4.45059 6.83639 4.51194 6.83938C4.6375 6.84553 4.76169 6.86256 4.88303 6.88906C4.38069 5.28291 3.8085 3.80156 3.09722 2.32247L2.9365 1.98828L3.30169 1.92366C4.21906 1.76122 5.16594 1.69834 6.06713 1.69806C6.12719 1.69806 6.18713 1.69828 6.24675 1.69881C6.81938 1.70381 7.37125 1.73344 7.88256 1.77803L8.228 1.80819L8.12725 2.13997C7.54288 4.06381 7.42841 6.12991 7.75881 8.09566C7.76431 8.10075 7.76988 8.10581 7.77525 8.11097C7.89441 8.06922 8.00588 8.02666 8.10978 7.98116C7.85184 5.87509 7.96613 3.70231 8.92944 1.44362C8.39188 1.30666 7.57241 1.23506 6.67197 1.22381C6.58161 1.22269 6.49124 1.22217 6.40088 1.22225V1.22222ZM10.9304 1.453C9.96303 3.50162 9.27594 5.14331 9.16331 6.91559C9.7895 4.82803 10.9998 2.95669 12.3791 1.75441C11.9003 1.63499 11.4171 1.53444 10.9304 1.453ZM1.71288 2.03203C1.12663 2.15291 0.553938 2.30634 0 2.51834C0.269563 2.75209 0.756875 3.18694 1.34813 3.76487C1.62025 3.48478 1.89778 3.20806 2.18725 2.95644C2.03393 2.64586 1.87579 2.33769 1.71288 2.03203ZM6.15109 2.26584C5.72547 2.26378 5.28978 2.27597 4.85253 2.30625C4.80666 2.73381 4.55378 3.13381 4.25175 3.52719C4.73397 4.66684 5.15044 5.82978 5.52538 7.0645C6.09959 7.23388 6.66769 7.43409 7.12788 7.674C6.95694 6.34719 6.98031 4.98766 7.20225 3.65812C6.79959 3.24219 6.58984 2.78031 6.57303 2.2725C6.43241 2.26875 6.29176 2.26653 6.15109 2.26584ZM11.8392 3.10912C11.0663 4.02475 10.3854 5.17153 9.92134 6.41888C10.7733 5.20694 11.821 4.26162 12.9363 3.59387C12.5729 3.42698 12.2072 3.26538 11.8392 3.10912ZM2.44103 3.48284C1.98497 3.89497 1.53434 4.38963 1.06506 4.86088C2.07409 5.46059 2.93353 6.17081 3.63463 6.97525C3.67816 6.95881 3.72213 6.94403 3.76634 6.93056C3.43828 5.80256 2.98869 4.64828 2.44103 3.48284ZM9.73438 7.38134C9.22197 7.99972 8.73956 8.32619 8.07531 8.58666C8.15003 8.87478 8.03906 9.20556 7.78363 9.45856C7.63338 9.60734 7.44456 9.77694 7.1685 9.88716C7.20833 9.91074 7.24898 9.93291 7.29038 9.95362C7.67675 10.1464 8.35935 10.0843 8.9935 9.79584C9.62569 9.50834 10.1904 9.01172 10.3998 8.50863C10.5047 8.22581 10.4298 8.07831 10.2461 7.862C10.1153 7.70809 9.92438 7.55294 9.73438 7.38138V7.38134ZM4.41941 7.39966C4.08456 7.39659 3.7445 7.49322 3.46347 7.70466C3.06378 8.00538 2.75566 8.54166 2.75291 9.45259V9.45884L2.75259 9.46509C2.66134 11.3833 2.80259 12.2682 3.08244 12.7484C3.32944 13.1722 3.74025 13.3751 4.34119 13.7482C4.36981 13.673 4.39963 13.5805 4.42759 13.4639C4.49875 13.167 4.55763 12.7593 4.59494 12.3084C4.66959 11.4066 4.65869 10.3237 4.53384 9.5445L4.46788 9.13231L4.87463 9.22591C5.86259 9.45319 6.42775 9.48003 6.75588 9.42216C7.08406 9.36422 7.19528 9.24956 7.38778 9.05891C7.56872 8.87978 7.56534 8.81531 7.52703 8.7145C7.48869 8.61366 7.33488 8.44747 7.07391 8.28847C6.55194 7.97047 5.665 7.67563 4.83597 7.45575C4.7 7.41976 4.56006 7.40092 4.41941 7.39966ZM10.3288 9.56891C10.0159 9.87372 9.63081 10.1239 9.22638 10.3079C8.57066 10.6061 7.84941 10.7425 7.25103 10.5439C7.03978 10.6225 6.91706 10.7129 6.85516 10.7877C6.77022 10.8903 6.76491 10.9658 6.79369 11.0739C6.82244 11.182 6.90822 11.3104 7.01428 11.4028C7.12031 11.4952 7.24634 11.5432 7.29425 11.5454C8.75656 11.6148 9.38944 11.1952 10.1779 10.7084C10.4078 10.5665 10.4958 10.279 10.4738 9.99184C10.4628 9.84828 10.421 9.71338 10.3728 9.62841C10.3608 9.60672 10.346 9.58672 10.3288 9.56891ZM5.13544 9.85316C5.22066 10.6365 5.22206 11.5505 5.1555 12.3548C5.11653 12.8258 5.05628 13.2542 4.97459 13.595C4.93906 13.7433 4.89997 13.8748 4.85272 13.9906L9.437 13.7885C9.38525 13.5964 9.3325 13.4034 9.27978 13.2103C9.10365 13.269 8.92363 13.3152 8.74103 13.3486L8.74241 13.3714L8.48253 13.3876C8.3225 13.4068 8.15591 13.4174 7.98306 13.4186L5.36244 13.5814L5.44034 13.2187C5.68869 12.0623 5.71159 11.044 5.55841 9.93013C5.41692 9.90722 5.27589 9.88155 5.13541 9.85316H5.13544ZM6.13456 9.99953C6.25794 10.9974 6.24309 11.9498 6.05938 12.9745L6.66138 12.9372C6.56697 12.7978 6.5021 12.6407 6.47075 12.4753C6.43025 12.2603 6.45278 12.021 6.59344 11.8232C6.59966 11.8144 6.60638 11.806 6.61303 11.7975C6.44909 11.6461 6.31216 11.4518 6.25009 11.2186C6.18403 10.9704 6.22528 10.6664 6.42188 10.4289C6.48684 10.3505 6.56538 10.2797 6.65759 10.2159C6.57603 10.1509 6.50453 10.082 6.44278 10.0103C6.34703 10.0109 6.2445 10.0073 6.13456 9.99953ZM10.2804 11.3053C9.54738 11.7507 8.72381 12.1764 7.26756 12.1073C7.22003 12.105 7.1728 12.0986 7.12638 12.0881C7.08784 12.1054 7.06728 12.1273 7.05194 12.1489C7.02184 12.1913 7.00406 12.2677 7.02353 12.3712C7.06253 12.5783 7.25869 12.8053 7.44134 12.8265C8.73463 12.9769 9.62819 12.5538 10.1708 12.0616C10.4208 11.8348 10.4229 11.6897 10.3861 11.5319C10.3676 11.453 10.327 11.3766 10.2804 11.3053ZM10.0715 12.8385C9.98471 12.8929 9.8956 12.9436 9.80444 12.9904C9.856 13.1795 9.90769 13.3686 9.95872 13.5577L10.5812 13.4461C10.4206 13.309 10.2949 13.1663 10.194 13.0243C10.149 12.9609 10.1093 12.8993 10.0715 12.8385Z" fill="#0250C6"/>
</svg>
