<svg width="24" height="25" viewBox="0 0 24 25" fill="none" xmlns="http://www.w3.org/2000/svg">
<path d="M15 2.5V12.5C15 13.6 14.1 14.5 13 14.5H2V6.5C2 4.29 3.79 2.5 6 2.5H15Z" stroke="#009260" stroke-width="1.5" stroke-linecap="round" stroke-linejoin="round"/>
<path d="M22 14.5V17.5C22 19.16 20.66 20.5 19 20.5H18C18 19.4 17.1 18.5 16 18.5C14.9 18.5 14 19.4 14 20.5H10C10 19.4 9.1 18.5 8 18.5C6.9 18.5 6 19.4 6 20.5H5C3.34 20.5 2 19.16 2 17.5V14.5H13C14.1 14.5 15 13.6 15 12.5V5.5H16.84C17.56 5.5 18.22 5.89001 18.58 6.51001L20.29 9.5H19C18.45 9.5 18 9.95 18 10.5V13.5C18 14.05 18.45 14.5 19 14.5H22Z" stroke="#009260" stroke-width="1.5" stroke-linecap="round" stroke-linejoin="round"/>
<path d="M8 22.5C9.10457 22.5 10 21.6046 10 20.5C10 19.3954 9.10457 18.5 8 18.5C6.89543 18.5 6 19.3954 6 20.5C6 21.6046 6.89543 22.5 8 22.5Z" stroke="#009260" stroke-width="1.5" stroke-linecap="round" stroke-linejoin="round"/>
<path d="M16 22.5C17.1046 22.5 18 21.6046 18 20.5C18 19.3954 17.1046 18.5 16 18.5C14.8954 18.5 14 19.3954 14 20.5C14 21.6046 14.8954 22.5 16 22.5Z" stroke="#009260" stroke-width="1.5" stroke-linecap="round" stroke-linejoin="round"/>
<path d="M22 12.5V14.5H19C18.45 14.5 18 14.05 18 13.5V10.5C18 9.95 18.45 9.5 19 9.5H20.29L22 12.5Z" stroke="#009260" stroke-width="1.5" stroke-linecap="round" stroke-linejoin="round"/>
</svg>
