<svg width="24" height="24" viewBox="0 0 24 24" fill="none" xmlns="http://www.w3.org/2000/svg">
<g id="Iconsax/Bold/whatsapp">
<path id="Vector" d="M21.9801 11.4104C21.6401 5.61045 16.3701 1.14045 10.3001 2.14045C6.12005 2.83045 2.77005 6.22045 2.12005 10.4004C1.74005 12.8204 2.24005 15.1104 3.33005 17.0005L2.44005 20.3104C2.24005 21.0604 2.93005 21.7404 3.67005 21.5305L6.93005 20.6304C8.41005 21.5005 10.1401 22.0005 11.9901 22.0005C17.6301 22.0005 22.3101 17.0304 21.9801 11.4104ZM16.8801 15.7205C16.6389 16.2152 16.2269 16.6059 15.7201 16.8204C15.4201 16.9504 15.0901 17.0105 14.7401 17.0105C14.2301 17.0105 13.6801 16.8904 13.1101 16.6404C12.5026 16.3737 11.9258 16.0418 11.3901 15.6504C10.8101 15.2304 10.2701 14.7605 9.75005 14.2505C9.23005 13.7304 8.77005 13.1804 8.35005 12.6104C7.94005 12.0405 7.61005 11.4704 7.37005 10.9004C7.13005 10.3305 7.01005 9.78045 7.01005 9.26045C7.01005 8.92045 7.07005 8.59045 7.19005 8.29045C7.31005 7.98045 7.50005 7.70045 7.77005 7.45045C8.09005 7.13045 8.44005 6.98045 8.81005 6.98045C8.95005 6.98045 9.09005 7.01045 9.22005 7.07045C9.35005 7.13045 9.47005 7.22045 9.56005 7.35045L10.7201 8.99045C10.8101 9.12045 10.8801 9.23045 10.9201 9.34045C10.9701 9.45045 10.9901 9.55045 10.9901 9.65045C10.9901 9.77045 10.9501 9.89045 10.8801 10.0105C10.8101 10.1305 10.7201 10.2505 10.6001 10.3705L10.2201 10.7705C10.1601 10.8305 10.1401 10.8905 10.1401 10.9705C10.1401 11.0105 10.1501 11.0505 10.1601 11.0905C10.1801 11.1305 10.1901 11.1604 10.2001 11.1904C10.2901 11.3604 10.4501 11.5704 10.6701 11.8305C11.1382 12.3806 11.6499 12.8923 12.2001 13.3604C12.4601 13.5805 12.6801 13.7304 12.8501 13.8204C12.8801 13.8305 12.9101 13.8504 12.9401 13.8604C12.9801 13.8805 13.0201 13.8805 13.0701 13.8805C13.1601 13.8805 13.2201 13.8505 13.2801 13.7905L13.6601 13.4104C13.7901 13.2804 13.9101 13.1905 14.0201 13.1305C14.1401 13.0605 14.2501 13.0205 14.3801 13.0205C14.4801 13.0205 14.5801 13.0405 14.6901 13.0905C14.8001 13.1405 14.9201 13.2004 15.0401 13.2905L16.7001 14.4705C16.8301 14.5605 16.9201 14.6705 16.9801 14.7905C17.0301 14.9205 17.0601 15.0405 17.0601 15.1805C17.0001 15.3505 16.9601 15.5405 16.8801 15.7205Z" fill="#10BB76"/>
</g>
</svg>
